<svg width="142" height="46" viewBox="0 0 142 46" fill="none" xmlns="http://www.w3.org/2000/svg">
<g clip-path="url(#clip0_1_1798)">
<path d="M135.312 16.9426H141.819C140.996 10.5978 136.37 7.2627 129.941 7.2627C123.433 7.2627 119.082 10.7198 119.082 16.6579C119.082 23.4095 124.688 24.9142 127.667 25.5245C131.509 26.2972 135.272 26.3786 135.272 29.7949C135.272 32.1132 133.391 33.252 130.725 33.252C127.432 33.252 125.237 31.5438 124.688 28.4529H118.259C118.651 35.1231 123.316 38.7021 130.176 38.7021C136.527 38.7021 141.741 35.6925 141.741 29.1849C141.741 22.1893 135.743 20.9285 131.548 20.2777C128.686 19.8304 125.55 19.4236 125.55 16.2918C125.55 14.0956 127.157 12.7535 129.862 12.7535C132.999 12.7535 134.88 14.5838 135.312 16.9426Z" fill="#403F41"/>
<path d="M114.69 8.28027H108.535V37.7673H114.69V8.28027Z" fill="#403F41"/>
<path d="M89.9528 27.477H97.9893C96.7347 30.6496 93.9121 32.1542 90.6583 32.1542C84.935 32.1542 82.2692 27.5584 82.2692 23.0031C82.2692 18.4071 84.7781 13.7299 90.6192 13.7299C94.1866 13.7299 96.8522 15.4381 97.8716 18.4885L104.497 18.4885C103.36 11.6151 97.558 7.66992 90.6977 7.66992C82.23 7.66992 75.8792 13.6485 75.8792 23.0845C75.8792 32.6424 82.7787 38.2958 90.6583 38.2958C98.4204 38.2958 104.497 33.0492 104.497 24.8334V22.4337H89.9528V27.477Z" fill="#403F41"/>
<path d="M61.8066 7.66992C54.7502 7.66992 49.5363 12.2657 49.5755 19.912H55.9263C55.8479 16.577 57.8863 13.5266 61.4929 13.5266C64.6292 13.5266 66.4716 15.8043 66.4716 18.4071C66.4716 21.0102 64.6292 22.4744 61.2185 24.0607C56.5534 26.2163 53.2214 27.5991 49.8107 28.8193V37.767H73.5673V31.7475H57.2582C57.2582 31.7475 57.3124 31.7299 57.3392 31.7216C60.1131 30.8495 62.1971 29.9021 64.6684 28.7786C69.9606 26.3383 72.9792 23.2878 72.9792 18.0819C72.9792 11.6963 68.4318 7.66992 61.8066 7.66992Z" fill="#403F41"/>
<path d="M32.8754 27.3958C24.8781 27.4365 23.5845 32.4391 23.1533 36.669L22.9574 38.5398H21.3499L21.154 36.669C20.7228 32.4391 19.39 27.4365 11.6671 27.3958C10.3734 24.63 9.82459 22.393 9.82459 19.8714C9.82459 13.5674 14.8033 7.66976 22.1732 7.66976C29.5432 7.66976 34.4434 13.5265 34.4434 19.9122C34.4435 22.393 34.2083 24.63 32.8754 27.3958ZM22.0949 0.0234375C9.94231 0.0234375 -0.0151367 10.3542 -0.0151367 23.003C-0.0151367 35.6928 9.94231 46.0233 22.0949 46.0233C34.365 46.0233 44.2832 35.6928 44.2832 23.003C44.2832 10.3542 34.365 0.0234375 22.0949 0.0234375Z" fill="#29B24A"/>
</g>
<defs>
<clipPath id="clip0_1_1798">
<rect width="141.833" height="46" fill="white"/>
</clipPath>
</defs>
</svg>
