<svg width="150" height="38" viewBox="0 0 150 38" fill="none" xmlns="http://www.w3.org/2000/svg">
<g clip-path="url(#clip0_1_1808)">
<path d="M57.315 0.853516L44.37 34.6296H51.33L54.015 27.5749H67.755L70.425 34.6296H77.325L64.425 0.853516H57.315ZM56.37 21.3738L60.9 9.49601L65.4 21.3738H56.37Z" fill="black"/>
<path d="M137.7 10.4697C135.27 10.4697 132.885 11.1887 130.86 12.5367C128.835 13.8848 127.26 15.802 126.33 18.0488C125.4 20.2955 125.16 22.7669 125.625 25.1485C126.105 27.53 127.275 29.7169 129 31.4394C130.725 33.1619 132.915 34.3302 135.3 34.8095C137.685 35.2888 140.16 35.0342 142.41 34.1055C144.66 33.1769 146.58 31.6041 147.93 29.5821C149.28 27.56 150 25.1784 150 22.7519C150 19.4867 148.71 16.3712 146.4 14.0645C144.09 11.7728 140.955 10.4697 137.7 10.4697ZM137.7 28.7583C136.515 28.7583 135.36 28.4138 134.37 27.7547C133.38 27.0957 132.615 26.167 132.165 25.0736C131.715 23.9802 131.595 22.7819 131.82 21.6136C132.045 20.4453 132.615 19.3818 133.455 18.543C134.295 17.7043 135.36 17.1351 136.53 16.9104C137.7 16.6857 138.9 16.7906 139.995 17.2549C141.09 17.7043 142.02 18.4681 142.68 19.4567C143.34 20.4453 143.685 21.5986 143.685 22.7819C143.685 23.5608 143.535 24.3546 143.235 25.0736C142.935 25.8075 142.5 26.4666 141.93 27.0208C141.375 27.575 140.715 28.0243 139.98 28.3239C139.26 28.5935 138.48 28.7583 137.7 28.7583Z" fill="black"/>
<path d="M85.62 25.9126L80.01 10.9043H73.38L82.425 34.63H89.01L97.89 10.9043H91.26L85.62 25.9126Z" fill="black"/>
<path d="M118.755 4.59863H112.44V10.9045H108.75V16.5663H112.44V26.6617C112.44 32.3834 115.605 34.8399 120.045 34.8399C121.545 34.8548 123.045 34.5702 124.44 33.9861V28.1146C123.69 28.3992 122.895 28.534 122.085 28.549C120.165 28.549 118.77 27.8 118.77 25.2388V16.5663H124.44V10.9045H118.77V4.59863H118.755Z" fill="black"/>
<path d="M103.065 9.19669C105.6 9.19669 107.67 7.14466 107.67 4.59835C107.67 2.06701 105.615 0 103.065 0C100.53 0 98.46 2.05203 98.46 4.59835C98.475 7.12968 100.53 9.19669 103.065 9.19669Z" fill="black"/>
<path d="M106.23 10.9043H99.915V34.63H106.23V10.9043Z" fill="black"/>
<path d="M12.315 37.9997C19.11 37.9997 24.63 32.5026 24.63 25.7025C24.63 18.9173 19.125 13.4053 12.315 13.4053C5.505 13.4203 0 18.9173 0 25.7025C0 32.4877 5.505 37.9997 12.315 37.9997Z" fill="#04E061"/>
<path d="M33.66 36.4425C37.77 36.4425 41.1 33.1173 41.1 29.0132C41.1 24.9092 37.77 21.584 33.66 21.584C29.55 21.584 26.22 24.9092 26.22 29.0132C26.22 33.1173 29.55 36.4425 33.66 36.4425Z" fill="#FF4053"/>
<path d="M14.6699 11.8178C17.2049 11.8178 19.2749 9.76576 19.2749 7.21944C19.2749 4.67312 17.2199 2.62109 14.6699 2.62109C12.1349 2.62109 10.0649 4.67312 10.0649 7.21944C10.0649 9.76576 12.1199 11.8178 14.6699 11.8178Z" fill="#965EEB"/>
<path d="M30.7801 19.9811C36.3001 19.9811 40.7851 15.5026 40.7851 9.99054C40.7851 4.47852 36.3001 0 30.7801 0C25.2601 0 20.7751 4.47852 20.7751 9.99054C20.7601 15.5175 25.2451 19.9811 30.7801 19.9811Z" fill="#00AAFF"/>
</g>
<defs>
<clipPath id="clip0_1_1808">
<rect width="150" height="38" fill="white"/>
</clipPath>
</defs>
</svg>
