<svg width="162" height="42" viewBox="0 0 162 42" fill="none" xmlns="http://www.w3.org/2000/svg">
<path fill-rule="evenodd" clip-rule="evenodd" d="M58.9404 13.1956C58.9404 12.6892 58.9404 12.1828 58.9404 11.6764C60.5489 11.6615 62.1425 11.6466 63.751 11.6318C63.7361 17.1871 63.7063 22.7275 63.6914 28.2679C62.1276 28.2679 60.5638 28.2679 59.0148 28.2679C58.9999 27.7317 58.9999 27.2104 58.985 26.6743C56.5872 29.2955 51.7468 29.6679 48.634 26.7487C46.8319 25.0509 45.8787 22.519 45.9234 19.7934C45.9532 17.4254 46.4744 15.8913 47.9489 14.0445C49.4085 12.2126 51.2702 11.0807 53.7723 11.0807C56.0808 11.2445 57.8829 11.87 58.9404 13.1956ZM54.9638 15.9807C57.1829 15.9807 58.985 17.7828 58.985 19.987C58.985 22.2062 57.1829 23.9934 54.9638 23.9934C52.7446 23.9934 50.9425 22.2062 50.9425 19.987C50.9425 17.7828 52.7446 15.9807 54.9638 15.9807Z" fill="#26364B"/>
<path fill-rule="evenodd" clip-rule="evenodd" d="M66.625 35.4319V20.1362C66.625 20.0468 66.625 19.9426 66.625 19.8383C66.625 14.8788 70.6463 10.8575 75.6058 10.8575C80.5654 10.8575 84.5867 14.8788 84.5867 19.8383C84.5867 24.8128 80.5654 28.834 75.6058 28.834C74.1612 28.834 72.7909 28.4915 71.5846 27.8808V35.4319H66.625ZM75.6058 15.8617C77.7952 15.8617 79.5824 17.649 79.5824 19.8383C79.5824 22.0426 77.7952 23.8298 75.6058 23.8298C73.4016 23.8298 71.6292 22.0426 71.6292 19.8383C71.6292 17.649 73.4016 15.8617 75.6058 15.8617Z" fill="#26364B"/>
<path fill-rule="evenodd" clip-rule="evenodd" d="M86.8938 19.4063V12.5553C86.8938 9.68083 87.2661 7.84892 89.1129 5.49573C90.7512 3.39574 93.1938 2.04042 96.4555 1.4L103.053 0L104.483 4.1702L96.947 5.70424C95.7704 5.94254 94.7874 6.40424 94.0129 7.05956C93.1193 7.83403 91.898 9.56168 91.8534 10.8127V11.8702C93.0597 11.2595 94.43 10.9319 95.8597 10.9319C100.819 10.9319 104.841 14.9532 104.841 19.9127C104.841 24.8723 100.819 28.8936 95.8597 28.8936C90.9002 28.8936 86.8789 24.8723 86.8789 19.9127C86.8789 19.7489 86.8789 19.5702 86.8938 19.4063ZM95.8597 15.9361C98.064 15.9361 99.8512 17.7085 99.8512 19.9127C99.8512 22.117 98.064 23.8893 95.8597 23.8893C93.6704 23.8893 91.8831 22.117 91.8831 19.9127C91.8831 17.7085 93.6704 15.9361 95.8597 15.9361Z" fill="#26364B"/>
<path fill-rule="evenodd" clip-rule="evenodd" d="M107.628 11.6318L107.613 22.9212C107.419 29.3701 115.596 30.7701 119.006 26.8233L118.991 28.3871H124.011V11.6318H118.917L118.932 21.0446C119.051 24.8722 112.736 25.2595 112.677 21.5361L112.647 11.6318H107.628Z" fill="#26364B"/>
<path fill-rule="evenodd" clip-rule="evenodd" d="M132.605 28.2531H137.446V16.5468H142.941V11.6468H127.109V16.5468H132.605V28.2531Z" fill="#26364B"/>
<path fill-rule="evenodd" clip-rule="evenodd" d="M157.19 13.1956C157.19 12.6892 157.19 12.1828 157.19 11.6764C158.799 11.6615 160.392 11.6466 162.001 11.6318C161.986 17.1871 161.971 22.7275 161.956 28.2679C160.392 28.2679 158.829 28.2679 157.265 28.2679C157.25 27.7317 157.25 27.2104 157.25 26.6743C154.837 29.2955 149.997 29.6679 146.884 26.7487C145.082 25.0509 144.129 22.519 144.173 19.7934C144.203 17.4254 144.724 15.8913 146.199 14.0445C147.658 12.2126 149.52 11.0807 152.022 11.0807C154.331 11.2445 156.148 11.87 157.19 13.1956ZM153.214 15.9807C155.448 15.9807 157.25 17.7828 157.25 19.987C157.25 22.2062 155.448 23.9934 153.214 23.9934C150.995 23.9934 149.193 22.2062 149.193 19.987C149.193 17.7828 150.995 15.9807 153.214 15.9807Z" fill="#ED4B58"/>
<path fill-rule="evenodd" clip-rule="evenodd" d="M4.17188 6.17975H22.9229C30.5335 6.17975 36.7739 12.4202 36.7739 20.0308C36.7739 27.6563 30.5335 33.8818 22.9229 33.8818H12.6612L12.5421 33.7031L4.17188 6.17975Z" fill="#ED4B58"/>
<path fill-rule="evenodd" clip-rule="evenodd" d="M1.71276 12.4201H3.4702H19.9574C25.468 12.4201 29.9659 17.2456 29.9659 23.1434C29.9659 29.0562 25.468 33.8817 19.9574 33.8817H12.5404L0 12.4201H1.68297H1.71276Z" fill="#D64555"/>
<path d="M76.2891 41.8213V35.4319H78.1657V37.8298H78.9848L80.7125 35.4319H82.738L80.4146 38.6787L80.0422 38.0681C80.2656 38.0979 80.4742 38.1724 80.6529 38.2766C80.8465 38.3809 81.0103 38.5298 81.1742 38.7085C81.338 38.8872 81.4869 39.0958 81.621 39.3341L82.9912 41.8213H80.9656L79.9231 39.9447C79.8486 39.766 79.7593 39.6468 79.655 39.5426C79.5657 39.4532 79.4465 39.3787 79.3274 39.3489C79.2231 39.3043 79.0742 39.2894 78.9103 39.2894H78.1657V41.8213H76.2891ZM88.2039 41.9553C87.5188 41.9553 86.938 41.8213 86.4316 41.5532C85.9401 41.2702 85.5529 40.883 85.2699 40.3915C85.0018 39.9 84.8678 39.3043 84.8678 38.6192C84.8678 37.9341 85.0018 37.3532 85.2699 36.8468C85.5529 36.3553 85.9401 35.9681 86.4316 35.7C86.938 35.4319 87.5188 35.2979 88.2039 35.2979C88.889 35.2979 89.4848 35.4319 89.9763 35.7C90.4826 35.9681 90.8699 36.3553 91.1529 36.8468C91.4209 37.3532 91.555 37.9341 91.555 38.6192C91.555 39.3043 91.4209 39.9 91.1529 40.3915C90.8699 40.883 90.4826 41.2702 89.9763 41.5532C89.4848 41.8213 88.889 41.9553 88.2039 41.9553ZM88.2039 40.5255C88.6358 40.5255 88.9933 40.3617 89.2465 40.0489C89.4997 39.7362 89.6337 39.2596 89.6337 38.6192C89.6337 37.9638 89.4997 37.5021 89.2465 37.1894C88.9933 36.8915 88.6358 36.7426 88.2039 36.7426C87.772 36.7426 87.4146 36.8915 87.1614 37.1894C86.9082 37.5021 86.7741 37.9638 86.7741 38.6192C86.7741 39.2596 86.9082 39.7362 87.1614 40.0489C87.4146 40.3617 87.772 40.5255 88.2039 40.5255ZM94.3699 41.8213V35.4319H96.2465V37.8298H98.7635V35.4319H100.64V41.8213H98.7635V39.2894H96.2465V41.8213H94.3699ZM106.851 41.9553C106.166 41.9553 105.57 41.8213 105.063 41.5532C104.557 41.2851 104.155 40.8979 103.872 40.3915C103.604 39.8851 103.455 39.2894 103.455 38.6043C103.455 37.9043 103.604 37.3085 103.887 36.817C104.17 36.3255 104.557 35.9532 105.063 35.7C105.57 35.4319 106.166 35.2979 106.851 35.2979C107.283 35.2979 107.7 35.3724 108.102 35.4915C108.519 35.6107 108.846 35.7894 109.115 36.0277L108.549 37.3383C108.34 37.1447 108.102 36.9958 107.834 36.8915C107.551 36.8021 107.298 36.7575 107.044 36.7575C106.523 36.7575 106.136 36.9064 105.838 37.2341C105.555 37.5468 105.421 38.0085 105.421 38.6192C105.421 39.2149 105.555 39.6915 105.838 40.0043C106.136 40.317 106.523 40.4809 107.044 40.4809C107.283 40.4809 107.536 40.4362 107.819 40.3468C108.087 40.2575 108.34 40.1085 108.549 39.9298L109.115 41.2255C108.832 41.4489 108.504 41.6277 108.087 41.7617C107.685 41.8957 107.268 41.9553 106.851 41.9553ZM114.297 41.9553C113.746 41.9553 113.255 41.8213 112.838 41.5532C112.421 41.2851 112.093 40.8979 111.855 40.4064C111.617 39.9149 111.497 39.3192 111.497 38.6192C111.497 37.9341 111.617 37.3383 111.855 36.8468C112.093 36.3404 112.421 35.9681 112.838 35.7C113.255 35.4319 113.746 35.2979 114.297 35.2979C114.804 35.2979 115.266 35.4319 115.683 35.6702C116.085 35.9234 116.353 36.2511 116.472 36.683H116.338L116.487 35.4319H118.319C118.289 35.7 118.274 35.983 118.244 36.266C118.229 36.549 118.214 36.817 118.214 37.0851V41.8213H116.323L116.308 40.6149H116.472C116.338 41.017 116.055 41.3447 115.653 41.5979C115.251 41.8362 114.804 41.9553 114.297 41.9553ZM114.878 40.5255C115.31 40.5255 115.668 40.3617 115.936 40.0489C116.204 39.7362 116.338 39.2596 116.338 38.6192C116.338 37.9638 116.204 37.5021 115.936 37.1894C115.668 36.8915 115.31 36.7426 114.878 36.7426C114.446 36.7426 114.089 36.8915 113.821 37.1894C113.553 37.5021 113.419 37.9638 113.419 38.6192C113.419 39.2596 113.553 39.7362 113.806 40.0489C114.074 40.3617 114.432 40.5255 114.878 40.5255ZM121.283 42L120.717 40.5255C120.985 40.4362 121.208 40.317 121.387 40.183C121.58 40.034 121.729 39.8553 121.834 39.6319C121.953 39.3936 122.027 39.1106 122.087 38.783C122.132 38.4404 122.161 38.0532 122.161 37.5766V35.4319H127.523V41.8213H125.632V36.8766H123.874V37.6511C123.874 38.5149 123.785 39.2596 123.591 39.8702C123.412 40.466 123.129 40.9426 122.757 41.3C122.37 41.6574 121.878 41.8957 121.283 42ZM131.991 41.8213V36.9213H129.876V35.4319H135.997V36.9213H133.868V41.8213H131.991ZM138.336 41.8213V35.4319H140.048V39.9149H139.631L143.012 35.4319H144.576V41.8213H142.863V37.3383H143.28L139.885 41.8213H138.336ZM147.644 41.8213V35.4319H149.521V37.8298H152.053V35.4319H153.929V41.8213H152.053V39.2894H149.521V41.8213H147.644ZM157.012 41.8213V35.4319H162.002V36.9213H158.919V41.8213H157.012Z" fill="#ED4B58"/>
</svg>
