<svg width="280" height="10" viewBox="0 0 280 10" fill="none" xmlns="http://www.w3.org/2000/svg">
<path d="M10 5C10 7.76142 7.76142 10 5 10C2.23858 10 0 7.76142 0 5C0 2.23858 2.23858 0 5 0C7.76142 0 10 2.23858 10 5Z" fill="white"/>
<path d="M40 5C40 7.76142 37.7614 10 35 10C32.2386 10 30 7.76142 30 5C30 2.23858 32.2386 0 35 0C37.7614 0 40 2.23858 40 5Z" fill="white"/>
<path d="M70 5C70 7.76142 67.7614 10 65 10C62.2386 10 60 7.76142 60 5C60 2.23858 62.2386 0 65 0C67.7614 0 70 2.23858 70 5Z" fill="white"/>
<path d="M100 5C100 7.76142 97.7614 10 95 10C92.2386 10 90 7.76142 90 5C90 2.23858 92.2386 0 95 0C97.7614 0 100 2.23858 100 5Z" fill="white"/>
<path d="M130 5C130 7.76142 127.761 10 125 10C122.239 10 120 7.76142 120 5C120 2.23858 122.239 0 125 0C127.761 0 130 2.23858 130 5Z" fill="white"/>
<path d="M160 5C160 7.76142 157.761 10 155 10C152.239 10 150 7.76142 150 5C150 2.23858 152.239 0 155 0C157.761 0 160 2.23858 160 5Z" fill="white"/>
<path d="M190 5C190 7.76142 187.761 10 185 10C182.239 10 180 7.76142 180 5C180 2.23858 182.239 0 185 0C187.761 0 190 2.23858 190 5Z" fill="white"/>
<path d="M220 5C220 7.76142 217.761 10 215 10C212.239 10 210 7.76142 210 5C210 2.23858 212.239 0 215 0C217.761 0 220 2.23858 220 5Z" fill="white"/>
<path d="M250 5C250 7.76142 247.761 10 245 10C242.239 10 240 7.76142 240 5C240 2.23858 242.239 0 245 0C247.761 0 250 2.23858 250 5Z" fill="white"/>
<path d="M280 5C280 7.76142 277.761 10 275 10C272.239 10 270 7.76142 270 5C270 2.23858 272.239 0 275 0C277.761 0 280 2.23858 280 5Z" fill="white"/>
</svg>
