<svg width="103" height="156" viewBox="0 0 103 156" fill="none" xmlns="http://www.w3.org/2000/svg">
<path d="M48.1696 54.8075C50.5547 52.729 53.9835 52.7752 55.9481 53.3782C54.6636 51.8069 51.6575 50.5143 50.7765 50.3588C50.1026 50.609 48.1696 52.5843 48.1696 54.8075Z" fill="#F4F4F4"/>
<path d="M106.826 48.6305C109.545 49.0404 110.405 50.8704 110.569 51.4293C111.492 50.6563 112.346 47.9666 112.012 46.2017C110.445 37.8595 90.9585 43.3856 81.143 39.8428C80.9554 42.2743 84.1641 46.17 87.2338 47.6138C81.9862 52.1421 77.2751 61.2697 76.3264 72.4194C75.3778 61.2697 70.6667 52.1421 65.4191 47.6138C68.4888 46.17 71.6997 42.2743 71.5099 39.8428C61.6945 43.3856 42.208 37.8595 40.6362 46.2017C40.3066 47.9666 41.1602 50.6563 42.0834 51.4293C42.2481 50.8704 43.1101 49.0404 45.8269 48.6305C59.5566 46.567 71.0193 67.6135 60.6723 76.1241C60.5138 76.2543 60.6025 76.4915 60.8156 76.4915H91.8394C92.0504 76.4915 92.1391 76.2543 91.9828 76.1241C81.633 67.6135 93.0963 46.567 106.826 48.6305Z" fill="#F4F4F4"/>
<path d="M87.9687 99.2862C88.497 95.4895 85.9173 94.3964 83.2197 94.8424C82.8838 93.5352 82.6091 92.3942 82.2965 91.2635C82.0472 90.3496 81.9563 88.6309 83.0212 88.6309C83.5955 88.6309 83.3657 90.2296 83.3105 90.9171C83.2619 91.5223 83.4814 91.8875 83.9741 91.9047C84.2824 91.9171 84.6669 91.5266 84.8951 91.2678C86.4392 89.5303 86.7983 86.8406 84.9882 85.5437C83.4755 84.4533 79.6832 85.2645 78.6394 86.8154C78.4831 86.2312 77.7314 85.2667 77.3701 84.8465C77.0191 84.4366 76.9283 84.1548 77.4145 83.7954C77.6427 83.6211 78.3333 82.9385 78.3333 82.2322C78.3333 81.8142 78.0078 81.0428 76.9726 81.0428C76.1571 81.0428 75.2512 81.6039 75.2512 82.8584C75.2512 83.1359 75.3188 83.4345 75.5005 83.7556C74.9846 83.6717 73.5844 83.7051 72.864 83.882L82.8076 111.024C85.6555 109.627 87.7404 107.414 87.7404 105.04C87.7404 103.016 84.7448 103.687 83.2894 105.267C82.8205 102.699 82.4041 100.331 81.9498 97.9688C81.8254 97.3174 82.157 97.0845 82.6832 96.8865C84.449 96.2351 87.2169 96.7628 87.1217 99.2991C87.1006 99.8726 87.9097 99.8726 87.9687 99.2862Z" fill="#F4F4F4"/>
<path d="M115.352 27.0562C115.105 26.2703 123.157 26.2493 123.157 31.2607C123.157 34.6206 118.342 36.2112 118.342 39.6976C118.342 41.3194 120.098 42.5109 120.636 42.5109C119.396 36.9154 124.523 39.8423 125.909 40.8891C123.157 33.364 129.353 33.4124 128.742 29.9599C128.318 27.55 122.933 28.2768 120.982 27.0562C117.527 24.8916 113.434 16.4654 110.739 24.8916C115.765 29.5334 112.841 36.3651 106.459 36.3651C106.459 36.3651 106.422 37.3673 106.482 37.4469C114.093 37.0752 116.745 31.513 115.352 27.0562Z" fill="#F4F4F4"/>
<path d="M101.798 50.3588C100.913 50.5165 97.9128 51.8069 96.624 53.3804C98.591 52.7752 102.02 52.729 104.403 54.8075C104.403 52.5843 102.472 50.6111 101.798 50.3588Z" fill="#F4F4F4"/>
<path d="M72.3355 99.8725C71.8115 101.428 72.137 104.105 73.1635 105.027C71.3783 105.027 69.2598 105.359 68.1971 106.111H68.195C67.9413 104.729 69.8742 102.258 72.3355 99.8725ZM65.155 105.479C64.7283 106.118 64.5211 107.21 64.5211 107.677C64.5211 110.366 67.7428 110.909 68.9743 110.339C72.5318 113.764 79.5204 112.85 81.8589 111.701L69.5551 78.1224C69.3042 77.4876 68.4021 77.7899 68.6238 78.45L70.7109 84.222C68.9218 84.6464 66.0463 85.9433 66.0463 87.662C66.0463 89.9482 70.1154 91.4378 72.4664 91.2592C72.3501 91.7804 72.4853 92.2447 72.8509 92.6712C71.9975 92.6712 70.3875 93.0666 69.8575 93.632C68.6109 92.476 66.659 92.0558 65.7315 92.7595C64.798 93.4701 64.7705 94.6697 65.7445 96.0274C66.4221 96.9666 66.6758 97.8929 65.9154 98.9839C68.7504 98.9839 67.705 95.3168 68.8158 95.3168C68.6703 96.0274 68.7612 96.8488 69.0819 97.7628C69.2977 98.3679 69.2977 98.7988 68.9299 99.383C68.0154 100.837 66.5936 104.178 66.7856 107.2C65.8564 107.193 65.3832 106.969 65.7104 105.706C65.8332 105.235 65.5417 104.899 65.155 105.479Z" fill="#F4F4F4"/>
<path d="M150.852 67.8066C148.951 68.7647 137.801 73.9589 123.518 72.0385C123.665 71.3596 123.79 70.6792 123.893 69.9917C133.398 68.8615 141.126 67.2579 146.053 64.5328C151.666 61.4246 154.121 54.0071 151.285 48.4874C151.214 48.3486 151.011 48.3233 150.907 48.4389C149.354 50.2168 139.592 60.7818 124.21 64.0642C124.173 63.2719 124.098 62.4816 123.993 61.6957C131.463 57.4805 138.756 52.6267 142.231 48.1867C147.48 41.4733 146.997 32.9126 142.001 28.5457C141.95 28.5016 141.882 28.4806 141.813 28.4914C141.745 28.4995 141.685 28.5398 141.648 28.5963C140.067 31.1891 125.273 54.9737 109.029 65.2407C108.833 65.3671 108.632 65.4908 108.431 65.6108C107.965 65.8921 107.914 66.493 108.311 66.8523C110.182 68.5398 111.347 70.889 111.347 73.4968C111.347 78.0316 107.834 81.803 103.188 82.6207C100.828 83.0763 97.4185 82.944 94.1459 81.8681C93.9983 81.8203 93.8458 81.9165 93.8458 82.0639V96.4262C93.8458 96.6575 94.2011 96.714 94.2833 96.4934C96.2735 91.2507 102.229 90.1367 104.834 90.1367C105.771 95.7408 107.447 100.383 109.621 102.881C113.163 106.941 118.948 106.882 121.455 104.077C121.498 104.031 121.515 103.968 121.504 103.907C121.494 103.846 121.455 103.791 121.401 103.762C119.926 102.919 111.494 97.771 109.807 89.3341C110.475 89.1055 111.123 88.8467 111.746 88.5401C114.467 93.02 118.428 97.0104 121.618 98.5338C126.976 101.091 131.879 99.8469 134.055 96.1066C134.133 95.9743 134.038 95.8102 133.878 95.7957C130.563 95.531 120.393 92.6332 116.064 85.5686C116.559 85.1167 117.044 84.6444 117.497 84.142C122.028 87.5734 128.434 90.6057 133.022 91.2254C138.388 91.9506 144.468 90.2486 144.616 84.0408C144.618 83.915 144.506 83.8144 144.375 83.8224C142.467 83.9359 129.834 84.4825 120.835 79.3447C121.147 78.7519 121.436 78.151 121.707 77.5399C121.707 77.5399 135.308 80.7358 141.751 79.6766C148.156 78.626 151.906 73.8772 151.182 67.9701C151.163 67.8233 150.99 67.7372 150.852 67.8066Z" fill="#F4F4F4"/>
<path d="M30.7596 77.5391C31.03 78.1502 31.3216 78.7532 31.6364 79.3438C22.6388 84.4795 10.0118 83.9372 8.09575 83.8216C7.96054 83.8135 7.84854 83.9206 7.85065 84.0421C8.00067 90.2477 14.0807 91.9513 19.4467 91.2246C24.031 90.6065 30.4407 87.5726 34.9701 84.1433C35.4242 84.6452 35.908 85.1159 36.4024 85.5699C32.0716 92.6324 21.9036 95.5302 18.589 95.7949C18.4305 95.8094 18.3354 95.9734 18.4115 96.1058C20.5875 99.846 25.4929 101.09 30.8505 98.5351C34.0384 97.0095 37.9995 93.0191 40.7205 88.5414C41.3458 88.8459 41.9965 89.1046 42.6599 89.3332C40.9719 97.7701 32.5406 102.92 31.0681 103.763C31.0132 103.792 30.9751 103.845 30.9646 103.906C30.954 103.967 30.9709 104.03 31.011 104.076C33.5187 106.883 39.3051 106.94 42.8479 102.88C45.0239 100.382 46.6949 95.74 47.6329 90.1358C50.2399 90.1358 56.193 91.2499 58.1832 96.4926C58.2697 96.7131 58.6229 96.6566 58.6229 96.4253V82.0631C58.6229 81.9157 58.4682 81.8194 58.3206 81.8673C55.048 82.9431 51.6405 83.0755 49.2829 82.6199C44.6352 81.8022 41.1198 78.0308 41.1198 73.496C41.1198 70.8881 42.2859 68.5368 44.1556 66.8477C44.5549 66.4921 44.5021 65.8913 44.0394 65.6099C43.8366 65.4878 43.6338 65.3662 43.4352 65.2398C27.202 54.9772 12.4139 31.2098 10.821 28.5997C10.747 28.4776 10.5696 28.4529 10.4597 28.547C5.47189 32.9156 4.98598 41.4746 10.2379 48.1858C13.711 52.6237 21.0037 57.4796 28.4717 61.6949C28.3661 62.4808 28.2942 63.271 28.2562 64.0634C12.8871 60.7809 3.13112 50.2348 1.56358 48.4462C1.46006 48.3246 1.25092 48.3499 1.17909 48.4887C-1.64757 54.0084 0.807273 61.4238 6.41622 64.5319C11.3407 67.2549 19.0685 68.8585 28.5752 69.9908C28.6766 70.6762 28.8013 71.3588 28.9491 72.0355C14.6807 73.9559 3.53674 68.7724 1.62062 67.8079C1.47696 67.7364 1.30584 67.8246 1.28683 67.9736C0.566438 73.8806 4.31418 78.6252 10.7174 79.6758C17.1588 80.7349 30.7596 77.5391 30.7596 77.5391Z" fill="#F4F4F4"/>
<path d="M26.56 40.8891C27.9437 39.8423 33.0731 36.9154 31.8351 42.5109C32.3717 42.5109 34.1273 41.3194 34.1273 39.6976C34.1273 36.2112 29.3106 34.6206 29.3106 31.2607C29.3106 26.2493 37.3617 26.2703 37.1145 27.0562C35.7244 31.513 38.3778 37.0773 45.9895 37.4469C46.0444 37.3673 46.0085 36.3651 46.0085 36.3651C39.6306 36.3651 36.7068 29.5334 41.7305 24.8916C39.0328 16.4654 34.9428 24.8916 31.4844 27.0562C29.5345 28.2789 24.1495 27.55 23.727 29.9599C23.1186 33.4124 29.3106 33.364 26.56 40.8891Z" fill="#F4F4F4"/>
<path d="M96.624 25.7225C96.624 27.6392 97.8495 29.026 98.4914 29.438C99.0918 29.026 100.359 27.6392 100.359 25.7225C100.359 25.2395 99.6959 24.1738 98.4914 24.1738C97.2854 24.1738 96.624 25.2395 96.624 25.7225Z" fill="#F4F4F4"/>
<path d="M72.9332 4.81395L75.0272 4.58694L74.8071 7.04959H77.6508L77.4312 4.58694L79.5247 4.81395V2.13074L77.4312 2.35775L77.6508 0H74.8071L75.0272 2.35775L72.9332 2.13074V4.81395Z" fill="#F4F4F4"/>
<path d="M73.5717 11.4395C73.5717 14.1603 75.3126 16.1291 76.2233 16.7155C77.0746 16.1291 78.8745 14.1603 78.8745 11.4395C78.8745 10.7541 77.9345 9.24147 76.2233 9.24147C74.5116 9.24147 73.5717 10.7541 73.5717 11.4395Z" fill="#F4F4F4"/>
<path d="M58.8785 37.4324C67.1601 37.4324 70.8826 32.3786 72.0086 27.9955C73.8717 27.9955 75.5277 27.9955 80.4417 27.9955C81.5677 32.3786 85.2902 37.4324 93.574 37.4324H103.421C104.804 36.0558 106.118 33.7234 106.118 31.343C106.118 27.9159 102.818 27.8777 101.904 27.8798C101.266 30.5189 99.51 31.7422 98.5236 32.2209C97.4755 31.7696 95.7075 30.6114 95.0715 27.8712C94.1251 27.8863 90.8715 27.9283 90.8715 31.343C90.8715 32.0886 91.0407 32.959 91.4144 33.9568C91.6135 34.4862 92.0883 35.2662 92.5383 35.9488C89.0446 35.4717 84.5844 33.0935 83.6066 27.9955C83.6066 27.9955 86.1879 23.9169 86.8369 22.2655C89.1646 16.3288 85.3832 13.8076 81.0355 13.8076C80.4292 16.6209 78.4368 18.6511 76.2211 19.6366C74.007 18.6511 72.021 16.6209 71.4148 13.8076C67.0671 13.8076 63.2878 16.3288 65.6134 22.2655C66.2623 23.9169 68.8459 27.9955 68.8459 27.9955C67.8653 33.0935 63.4057 35.4717 59.9114 35.9488C60.3614 35.2662 60.8368 34.4862 61.0353 33.9568C61.4095 32.959 61.5783 32.0886 61.5783 31.343C61.5783 27.9283 58.3252 27.8863 57.3788 27.8712C56.7428 30.6114 54.9743 31.7696 53.9287 32.2209C52.9422 31.7422 51.1866 30.5189 50.5486 27.8798C49.6317 27.8777 46.3319 27.9159 46.3319 31.343C46.3319 33.7234 47.6459 36.0558 49.0297 37.4324H58.8785Z" fill="#F4F4F4"/>
<path d="M101.027 18.6184L99.4 18.7948L99.5709 16.8577H97.4206L97.5937 18.7948L95.9669 18.6184V20.6507L97.5937 20.4737L97.4206 22.4113H99.5709L99.4 20.4737L101.027 20.6507V18.6184Z" fill="#F4F4F4"/>
<path d="M55.0291 16.8577H52.8806L53.0496 18.7948L51.425 18.6184V20.6507L53.0496 20.4737L52.8806 22.4113H55.0291L54.8582 20.4737L56.4844 20.6507V18.6184L54.8582 18.7948L55.0291 16.8577Z" fill="#F4F4F4"/>
<path d="M52.0907 25.7225C52.0907 27.6392 53.3583 29.026 53.9582 29.438C54.6004 29.026 55.8281 27.6392 55.8281 25.7225C55.8281 25.2395 55.1645 24.1738 53.9582 24.1738C52.7541 24.1738 52.0907 25.2395 52.0907 25.7225Z" fill="#F4F4F4"/>
<path d="M116.417 112.989L118.227 112.794L118.037 114.921H120.494L120.304 112.794L122.113 112.989V110.67L120.304 110.865L120.494 108.829H118.037L118.227 110.865L116.417 110.67V112.989Z" fill="#F4F4F4"/>
<path d="M120.651 116.781V123.196H117.881V116.766C114.127 117.267 111.104 119.853 110.233 123.215C107.236 123.619 99.1509 121.831 99.9388 120.641C108.846 108.181 102.032 100.763 93.8459 101.175V109.544C93.8459 112.232 91.4885 114.409 88.5837 114.409H82.9305C78.8743 114.409 76.2334 118.464 76.2334 118.464C76.2334 118.464 73.5926 114.409 69.5386 114.409H63.8832C60.9762 114.409 58.6247 112.232 58.6247 109.544V101.175C50.4366 100.763 43.6171 108.183 52.528 120.643C53.3097 121.82 44.9565 123.707 41.0397 123.23C40.0067 122.167 38.5173 121.494 36.8505 121.494C36.1427 121.494 35.4392 121.62 34.7759 121.866C34.7759 121.866 19.3793 107.367 19.0962 107.225L19.223 106.93C20.0997 105.3 18.7582 103.522 17.909 103.648C18.8955 102.471 18.942 97.3233 13.4725 96.1318C13.633 97.1657 13.7134 99.2776 13.7134 99.2776C13.7134 99.2776 9.49239 97.0081 7.37344 98.9667C5.51224 101.158 8.09598 105.136 8.09598 105.136C8.09598 105.136 5.9369 105.188 4.87213 105.1C6.43754 110.364 11.6874 109.992 12.8218 108.952C12.7479 109.79 14.6471 110.984 16.2548 110.026L16.9625 109.685C17.0872 109.853 32.0823 123.945 32.0823 123.945C31.3937 124.962 31.0662 126.208 31.2922 127.54C31.6471 129.618 33.3879 131.341 35.6125 131.787C37.1821 132.102 38.6589 131.797 39.8419 131.108L43.8115 134.772C44.1664 135.092 44.6438 135.291 45.1762 135.254C46.148 135.189 46.8747 134.405 46.8008 133.507C46.7691 133.102 46.5621 132.755 46.2748 132.493C46.2114 132.421 42.2312 128.748 42.2312 128.748C45.5142 126.458 51.6302 124.844 56.7086 124.844C57.6004 124.844 58.0185 124.094 57.7124 123.356C55.4117 117.855 60.3575 113.871 65.4721 117.115C67.7052 118.529 69.9718 121.316 71.6786 125.964C63.2856 127.987 52.7478 133.556 50.614 139.633C49.7943 141.98 52.5048 145.18 55.7984 145.825C55.8573 145.838 55.919 145.827 55.9671 145.794C56.018 145.762 56.0542 145.71 56.0645 145.653C57.7865 136.577 67.597 129.816 72.7035 128.668C72.9587 129.351 72.8744 129.131 73.1324 129.811C67.5716 132.427 62.1807 137.943 60.6382 144.501C59.9325 147.504 63.3002 150.213 66.0805 150.952C66.2195 150.99 66.3569 150.894 66.3656 150.759C66.8939 142.465 70.5759 135.422 73.8738 132.217C73.9647 132.843 74.0323 133.474 74.0766 134.104C74.0766 134.104 70.7008 143.466 70.7008 150.295C70.7008 153.472 75.4476 155.689 76.1491 156C77.0257 155.689 81.7682 153.472 81.7682 150.295C81.7682 143.463 78.3924 134.104 78.3924 134.104C78.4368 133.474 78.5065 132.843 78.5974 132.217C81.8932 135.422 85.5773 142.463 86.1056 150.757C86.1121 150.891 86.2511 150.99 86.3885 150.952C89.171 150.213 92.5366 147.504 91.833 144.501C90.2884 137.943 84.8991 132.427 79.3389 129.811C79.5947 129.131 79.5103 129.351 79.7656 128.668C84.8742 129.816 94.6826 136.577 96.4045 145.653C96.4148 145.71 96.4511 145.762 96.5019 145.794C96.55 145.825 96.6117 145.838 96.6706 145.825C99.9599 145.18 102.677 141.98 101.851 139.635C99.7258 133.556 89.1835 127.987 80.7904 125.966C82.5016 121.316 84.7682 118.529 86.9991 117.115C92.1115 113.871 97.0573 117.857 94.7567 123.358C94.4484 124.094 94.8664 124.844 95.7604 124.844C101.452 124.844 108.448 126.872 111.3 129.601C112.914 132.079 115.853 133.737 119.21 133.737C124.308 133.737 128.44 129.916 128.44 125.207C128.44 120.948 125.062 117.42 120.651 116.781Z" fill="#F4F4F4"/>
</svg>
