<svg width="152" height="156" viewBox="0 0 152 156" fill="none" xmlns="http://www.w3.org/2000/svg">
<g clip-path="url(#clip0_1_990)">
<path d="M48.1691 54.8076C50.5543 52.7291 53.983 52.7753 55.9476 53.3783C54.6631 51.807 51.657 50.5144 50.7761 50.3589C50.1021 50.6091 48.1691 52.5843 48.1691 54.8076Z" fill="#EAEAEA"/>
<path d="M106.825 48.6311C109.544 49.041 110.404 50.8711 110.569 51.43C111.492 50.657 112.345 47.9673 112.012 46.2024C110.444 37.8601 90.9579 43.3863 81.1425 39.8435C80.9549 42.2749 84.1636 46.1706 87.2333 47.6144C81.9857 52.1427 77.2745 61.2703 76.3259 72.42C75.3773 61.2703 70.6662 52.1427 65.4186 47.6144C68.4883 46.1706 71.6992 42.2749 71.5094 39.8435C61.694 43.3863 42.2075 37.8601 40.6357 46.2024C40.3061 47.9673 41.1597 50.657 42.0829 51.43C42.2476 50.8711 43.1096 49.041 45.8264 48.6311C59.5561 46.5676 71.0188 67.6142 60.6718 76.1248C60.5133 76.255 60.602 76.4922 60.8151 76.4922H91.8389C92.0499 76.4922 92.1386 76.255 91.9823 76.1248C81.6325 67.6142 93.0958 46.5676 106.825 48.6311Z" fill="#EAEAEA"/>
<path d="M87.9682 99.2864C88.4966 95.4897 85.9168 94.3966 83.2192 94.8426C82.8833 93.5354 82.6086 92.3945 82.296 91.2637C82.0467 90.3498 81.9558 88.6311 83.0207 88.6311C83.5951 88.6311 83.3652 90.2298 83.3101 90.9173C83.2614 91.5225 83.481 91.8877 83.9736 91.9049C84.2819 91.9173 84.6664 91.5268 84.8947 91.268C86.4387 89.5305 86.7978 86.8409 84.9877 85.5439C83.475 84.4535 79.6827 85.2647 78.639 86.8156C78.4827 86.2314 77.7309 85.2669 77.3696 84.8468C77.0186 84.4369 76.9278 84.155 77.414 83.7956C77.6422 83.6213 78.3328 82.9387 78.3328 82.2324C78.3328 81.8144 78.0073 81.043 76.9721 81.043C76.1566 81.043 75.2507 81.6041 75.2507 82.8586C75.2507 83.1361 75.3183 83.4347 75.5 83.7558C74.9841 83.6719 73.5839 83.7053 72.8635 83.8822L82.8071 111.024C85.6551 109.627 87.7399 107.414 87.7399 105.04C87.7399 103.016 84.7443 103.687 83.289 105.267C82.8201 102.699 82.4036 100.331 81.9493 97.969C81.8249 97.3176 82.1565 97.0847 82.6827 96.8867C84.4485 96.2353 87.2164 96.763 87.1212 99.2993C87.1001 99.8728 87.9092 99.8728 87.9682 99.2864Z" fill="#EAEAEA"/>
<path d="M115.352 27.056C115.105 26.2701 123.156 26.2491 123.156 31.2605C123.156 34.6204 118.341 36.211 118.341 39.6974C118.341 41.3192 120.097 42.5107 120.636 42.5107C119.396 36.9152 124.523 39.8421 125.909 40.8889C123.156 33.3638 129.352 33.4122 128.742 29.9597C128.317 27.5498 122.932 28.2766 120.982 27.056C117.526 24.8914 113.434 16.4652 110.738 24.8913C115.764 29.5332 112.84 36.3649 106.458 36.3649C106.458 36.3649 106.422 37.3671 106.481 37.4467C114.093 37.075 116.744 31.5127 115.352 27.056Z" fill="#EAEAEA"/>
<path d="M101.798 50.3589C100.912 50.5165 97.9123 51.807 96.6235 53.3805C98.5905 52.7753 102.019 52.7291 104.402 54.8076C104.402 52.5843 102.471 50.6112 101.798 50.3589Z" fill="#EAEAEA"/>
<path d="M72.335 99.8732C71.811 101.428 72.1365 104.105 73.163 105.028C71.3778 105.028 69.2594 105.36 68.1966 106.112H68.1945C67.9408 104.729 69.8737 102.258 72.335 99.8732ZM65.1545 105.479C64.7278 106.118 64.5207 107.211 64.5207 107.677C64.5207 110.367 67.7424 110.909 68.9738 110.34C72.5313 113.765 79.5199 112.851 81.8584 111.701L69.5546 78.123C69.3037 77.4883 68.4016 77.7906 68.6234 78.4506L70.7104 84.2226C68.9213 84.647 66.0458 85.944 66.0458 87.6627C66.0458 89.9489 70.1149 91.4384 72.4659 91.2598C72.3496 91.7811 72.4848 92.2453 72.8504 92.6719C71.997 92.6719 70.387 93.0673 69.857 93.6326C68.6104 92.4766 66.6585 92.0565 65.731 92.7601C64.7976 93.4707 64.77 94.6703 65.744 96.028C66.4217 96.9673 66.6753 97.8936 65.9149 98.9845C68.7499 98.9845 67.7045 95.3174 68.8153 95.3174C68.6699 96.028 68.7607 96.8495 69.0814 97.7634C69.2972 98.3686 69.2972 98.7995 68.9295 99.3837C68.0149 100.838 66.5931 104.179 66.7851 107.2C65.856 107.194 65.3827 106.969 65.7099 105.706C65.8327 105.236 65.5412 104.9 65.1545 105.479Z" fill="#EAEAEA"/>
<path d="M150.852 67.8067C148.95 68.7648 137.8 73.959 123.517 72.0386C123.665 71.3597 123.79 70.6793 123.893 69.9918C133.397 68.8616 141.125 67.258 146.052 64.5329C151.665 61.4247 154.12 54.0072 151.285 48.4874C151.213 48.3487 151.01 48.3234 150.907 48.439C149.354 50.2169 139.591 60.7819 124.21 64.0643C124.172 63.2719 124.098 62.4817 123.992 61.6958C131.462 57.4806 138.755 52.6268 142.23 48.1868C147.48 41.4734 146.996 32.9127 142 28.5458C141.949 28.5017 141.882 28.4807 141.812 28.4915C141.744 28.4995 141.685 28.5399 141.647 28.5964C140.067 31.1892 125.273 54.9738 109.029 65.2408C108.832 65.3672 108.631 65.4909 108.431 65.6109C107.964 65.8922 107.913 66.4931 108.311 66.8524C110.182 68.5399 111.346 70.889 111.346 73.4969C111.346 78.0317 107.833 81.8031 103.188 82.6208C100.828 83.0764 97.418 82.9441 94.1455 81.8682C93.9978 81.8203 93.8453 81.9166 93.8453 82.064V96.4263C93.8453 96.6576 94.2006 96.714 94.2828 96.4935C96.2731 91.2508 102.228 90.1368 104.833 90.1368C105.771 95.7409 107.446 100.383 109.62 102.881C113.163 106.941 118.948 106.882 121.455 104.077C121.497 104.031 121.514 103.968 121.504 103.907C121.493 103.846 121.455 103.791 121.4 103.762C119.925 102.919 111.494 97.7711 109.806 89.3342C110.474 89.1055 111.122 88.8468 111.746 88.5402C114.466 93.0201 118.428 97.0104 121.618 98.5339C126.975 101.091 131.879 99.847 134.055 96.1067C134.133 95.9744 134.038 95.8103 133.877 95.7958C130.562 95.5311 120.392 92.6333 116.063 85.5687C116.558 85.1168 117.044 84.6445 117.496 84.1421C122.028 87.5735 128.433 90.6058 133.022 91.2255C138.388 91.9507 144.468 90.2486 144.615 84.0409C144.617 83.915 144.505 83.8145 144.375 83.8225C142.467 83.936 129.833 84.4826 120.834 79.3448C121.147 78.752 121.436 78.1511 121.706 77.54C121.706 77.54 135.308 80.7359 141.751 79.6767C148.156 78.6261 151.906 73.8773 151.181 67.9702C151.162 67.8234 150.989 67.7373 150.852 67.8067Z" fill="#EAEAEA"/>
<path d="M30.7591 77.5392C31.0296 78.1503 31.3211 78.7533 31.6359 79.3439C22.6383 84.4796 10.0113 83.9373 8.09526 83.8217C7.96005 83.8136 7.84805 83.9207 7.85016 84.0422C8.00018 90.2478 14.0802 91.9514 19.4462 91.2247C24.0305 90.6066 30.4402 87.5727 34.9696 84.1434C35.4238 84.6453 35.9075 85.1159 36.4019 85.57C32.0711 92.6325 21.9032 95.5303 18.5885 95.7949C18.43 95.8095 18.335 95.9735 18.411 96.1059C20.587 99.8461 25.4924 101.09 30.85 98.5352C34.0379 97.0096 37.999 93.0192 40.72 88.5415C41.3453 88.846 41.996 89.1047 42.6594 89.3333C40.9714 97.7702 32.5401 102.92 31.0676 103.763C31.0127 103.792 30.9746 103.845 30.9641 103.906C30.9535 103.967 30.9704 104.03 31.0105 104.076C33.5182 106.883 39.3046 106.94 42.8474 102.881C45.0234 100.382 46.6944 95.7401 47.6324 90.1359C50.2394 90.1359 56.1925 91.25 58.1827 96.4926C58.2692 96.7132 58.6224 96.6567 58.6224 96.4254V82.0632C58.6224 81.9158 58.4677 81.8195 58.3201 81.8674C55.0476 82.9432 51.64 83.0756 49.2824 82.6199C44.6347 81.8023 41.1193 78.0309 41.1193 73.4961C41.1193 70.8882 42.2855 68.5369 44.1551 66.8478C44.5544 66.4922 44.5016 65.8914 44.0389 65.61C43.8361 65.4879 43.6333 65.3663 43.4347 65.2399C27.2016 54.9773 12.4134 31.2099 10.8205 28.5998C10.7465 28.4777 10.5691 28.453 10.4592 28.5471C5.4714 32.9157 4.9855 41.4747 10.2374 48.1859C13.7105 52.6238 21.0032 57.4797 28.4712 61.695C28.3656 62.4809 28.2937 63.2711 28.2557 64.0635C12.8866 60.781 3.13064 50.2349 1.56309 48.4463C1.45957 48.3247 1.25043 48.35 1.1786 48.4888C-1.64805 54.0085 0.806784 61.4238 6.41573 64.532C11.3402 67.255 19.068 68.8586 28.5747 69.9909C28.6761 70.6763 28.8008 71.3589 28.9486 72.0356C14.6802 73.956 3.53625 68.7725 1.62013 67.808C1.47648 67.7365 1.30535 67.8247 1.28634 67.9737C0.56595 73.8807 4.31369 78.6253 10.717 79.6758C17.1583 80.735 30.7591 77.5392 30.7591 77.5392Z" fill="#EAEAEA"/>
<path d="M26.5595 40.8889C27.9433 39.8421 33.0726 36.9152 31.8347 42.5107C32.3713 42.5107 34.1268 41.3192 34.1268 39.6974C34.1268 36.211 29.3101 34.6204 29.3101 31.2605C29.3101 26.2491 37.3612 26.2701 37.114 27.056C35.724 31.5127 38.3773 37.0771 45.9891 37.4467C46.044 37.3671 46.0081 36.3649 46.0081 36.3649C39.6301 36.3649 36.7063 29.5332 41.7301 24.8913C39.0323 16.4652 34.9423 24.8914 31.484 27.056C29.5341 28.2787 24.149 27.5498 23.7265 29.9597C23.1181 33.4122 29.3101 33.3638 26.5595 40.8889Z" fill="#EAEAEA"/>
<path d="M96.6235 25.723C96.6235 27.6396 97.849 29.0264 98.491 29.4385C99.0913 29.0264 100.358 27.6396 100.358 25.723C100.358 25.2399 99.6954 24.1743 98.491 24.1743C97.2849 24.1743 96.6235 25.2399 96.6235 25.723Z" fill="#EAEAEA"/>
<path d="M72.9327 4.81416L75.0268 4.58715L74.8066 7.0498H77.6503L77.4307 4.58715L79.5242 4.81416V2.13096L77.4307 2.35796L77.6503 0.000212669H74.8066L75.0268 2.35796L72.9327 2.13096V4.81416Z" fill="#EAEAEA"/>
<path d="M73.5712 11.4398C73.5712 14.1606 75.3121 16.1295 76.2229 16.7158C77.0741 16.1295 78.874 14.1606 78.874 11.4398C78.874 10.7545 77.934 9.2418 76.2229 9.2418C74.5111 9.2418 73.5712 10.7545 73.5712 11.4398Z" fill="#EAEAEA"/>
<path d="M58.878 37.4326C67.1596 37.4326 70.8821 32.3788 72.0081 27.9957C73.8713 27.9957 75.5273 27.9957 80.4412 27.9957C81.5672 32.3788 85.2897 37.4326 93.5735 37.4326H103.42C104.804 36.0561 106.118 33.7236 106.118 31.3432C106.118 27.9161 102.818 27.8779 101.903 27.88C101.265 30.5191 99.5096 31.7424 98.5231 32.2211C97.475 31.7698 95.707 30.6117 95.071 27.8714C94.1246 27.8865 90.871 27.9285 90.871 31.3432C90.871 32.0888 91.0402 32.9592 91.414 33.957C91.613 34.4864 92.0878 35.2664 92.5378 35.949C89.0441 35.4719 84.5839 33.0937 83.6061 27.9957C83.6061 27.9957 86.1874 23.9171 86.8364 22.2657C89.1641 16.3291 85.3827 13.8078 81.035 13.8078C80.4287 16.6211 78.4364 18.6513 76.2206 19.6368C74.0065 18.6513 72.0205 16.6211 71.4143 13.8078C67.0666 13.8078 63.2873 16.3291 65.6129 22.2657C66.2619 23.9171 68.8454 27.9957 68.8454 27.9957C67.8649 33.0937 63.4052 35.4719 59.911 35.949C60.3609 35.2664 60.8363 34.4864 61.0348 33.957C61.409 32.9592 61.5778 32.0888 61.5778 31.3432C61.5778 27.9285 58.3247 27.8865 57.3783 27.8714C56.7423 30.6117 54.9738 31.7698 53.9283 32.2211C52.9417 31.7424 51.1861 30.5191 50.5481 27.88C49.6312 27.8779 46.3314 27.9161 46.3314 31.3432C46.3314 33.7236 47.6454 36.0561 49.0292 37.4326H58.878Z" fill="#EAEAEA"/>
<path d="M101.026 18.6182L99.3995 18.7946L99.5704 16.8575H97.4201L97.5932 18.7946L95.9664 18.6182V20.6505L97.5932 20.4735L97.4201 22.4111H99.5704L99.3995 20.4735L101.026 20.6505V18.6182Z" fill="#EAEAEA"/>
<path d="M55.0286 16.8575H52.88L53.049 18.7946L51.4245 18.6182V20.6505L53.049 20.4735L52.88 22.4111H55.0286L54.8577 20.4735L56.4839 20.6505V18.6182L54.8577 18.7946L55.0286 16.8575Z" fill="#EAEAEA"/>
<path d="M52.0902 25.723C52.0902 27.6396 53.3578 29.0264 53.9577 29.4385C54.6 29.0264 55.8276 27.6396 55.8276 25.723C55.8276 25.2399 55.164 24.1743 53.9577 24.1743C52.7536 24.1743 52.0902 25.2399 52.0902 25.723Z" fill="#EAEAEA"/>
<path d="M116.417 112.99L118.227 112.794L118.037 114.921H120.494L120.304 112.794L122.112 112.99V110.67L120.304 110.865L120.494 108.829H118.037L118.227 110.865L116.417 110.67V112.99Z" fill="#EAEAEA"/>
<path d="M120.65 116.781V123.197H119.207H119.205H117.881V116.767C114.126 117.267 111.104 119.854 110.233 123.216C107.235 123.619 99.1504 121.831 99.9383 120.642C108.845 108.181 102.032 100.763 93.8454 101.175V109.545C93.8454 112.232 91.488 114.409 88.5832 114.409H82.93C78.8738 114.409 76.2329 118.465 76.2329 118.465C76.2329 118.465 73.5921 114.409 69.5381 114.409H63.8827C60.9758 114.409 58.6243 112.232 58.6243 109.545V101.175C50.4361 100.763 43.6166 108.183 52.5275 120.644C53.3092 121.82 44.956 123.707 41.0392 123.23C40.0062 122.167 38.5168 121.495 36.85 121.495C36.1423 121.495 35.4387 121.621 34.7754 121.867C34.7754 121.867 19.3788 107.368 19.0957 107.225L19.2225 106.931C20.0992 105.3 18.7577 103.522 17.9085 103.648C18.895 102.472 18.9415 97.3236 13.472 96.132C13.6326 97.1659 13.7129 99.2779 13.7129 99.2779C13.7129 99.2779 9.4919 97.0083 7.37295 98.9669C5.51176 101.158 8.09549 105.136 8.09549 105.136C8.09549 105.136 5.93641 105.189 4.87164 105.1C6.43705 110.364 11.6869 109.992 12.8213 108.952C12.7474 109.79 14.6466 110.984 16.2543 110.026L16.962 109.685C17.0867 109.853 32.0819 123.945 32.0819 123.945C31.3932 124.962 31.0657 126.208 31.2918 127.54C31.6467 129.618 33.3875 131.341 35.612 131.787C37.1817 132.102 38.6584 131.797 39.8414 131.108L43.811 134.773C44.1659 135.092 44.6434 135.292 45.1757 135.254C46.1475 135.189 46.8743 134.405 46.8003 133.508C46.7686 133.102 46.5616 132.756 46.2743 132.493C46.2109 132.421 42.2307 128.748 42.2307 128.748C45.5138 126.458 51.6297 124.844 56.7081 124.844C57.5999 124.844 58.018 124.094 57.7119 123.356C55.4112 117.855 60.3571 113.871 65.4716 117.116C67.7047 118.53 69.9713 121.316 71.6781 125.964C63.2851 127.988 52.7473 133.556 50.6135 139.633C49.7938 141.98 52.5043 145.18 55.7979 145.826C55.8569 145.838 55.9185 145.828 55.9666 145.794C56.0175 145.762 56.0537 145.71 56.064 145.653C57.786 136.578 67.5965 129.816 72.703 128.668C72.9583 129.351 72.8739 129.131 73.1319 129.812C67.5711 132.428 62.1802 137.944 60.6377 144.502C59.932 147.504 63.2997 150.213 66.0801 150.953C66.219 150.991 66.3564 150.894 66.3651 150.759C66.8935 142.466 70.5754 135.422 73.8733 132.218C73.9642 132.844 74.0318 133.474 74.0761 134.105C74.0761 134.105 70.7003 143.466 70.7003 150.295C70.7003 153.472 75.4471 155.689 76.1486 156C77.0253 155.689 81.7677 153.472 81.7677 150.295C81.7677 143.464 78.3919 134.105 78.3919 134.105C78.4363 133.474 78.506 132.844 78.5969 132.218C81.8927 135.422 85.5768 142.463 86.1051 150.757C86.1116 150.892 86.2506 150.991 86.388 150.953C89.1705 150.213 92.5361 147.504 91.8325 144.502C90.2879 137.944 84.8986 132.428 79.3384 129.812C79.5942 129.131 79.5098 129.351 79.7651 128.668C84.8737 129.816 94.6821 136.578 96.4041 145.653C96.4143 145.71 96.4506 145.762 96.5014 145.794C96.5495 145.826 96.6112 145.838 96.6702 145.826C99.9594 145.18 102.677 141.98 101.85 139.635C99.7253 133.556 89.183 127.988 80.7899 125.966C82.5011 121.316 84.7677 118.53 86.9986 117.116C92.111 113.871 97.0568 117.857 94.7562 123.359C94.4479 124.094 94.866 124.844 95.7599 124.844C101.451 124.844 108.448 126.872 111.3 129.601C112.914 132.079 115.853 133.737 119.21 133.737C124.307 133.737 128.439 129.917 128.439 125.208C128.439 120.948 125.061 117.42 120.65 116.781Z" fill="#EAEAEA"/>
</g>
<defs>
<clipPath id="clip0_1_990">
<rect width="152" height="156" fill="white"/>
</clipPath>
</defs>
</svg>
