<svg width="40" height="40" viewBox="0 0 40 40" fill="none" xmlns="http://www.w3.org/2000/svg">
<path fill-rule="evenodd" clip-rule="evenodd" d="M28.9766 4.87683C26.81 4.58683 23.9633 4.5835 20 4.5835C16.0366 4.5835 13.19 4.58683 11.0233 4.87683C8.89165 5.1635 7.60665 5.71016 6.65665 6.6585C5.70831 7.6085 5.16331 8.89183 4.87665 11.0235C4.58665 13.1902 4.58331 16.0368 4.58331 20.0002C4.58331 23.9635 4.58665 26.8102 4.87665 28.9768C5.16331 31.1085 5.70998 32.3935 6.65831 33.3435C7.60831 34.2918 8.89165 34.8368 11.0233 35.1235C13.19 35.4135 16.0366 35.4168 20 35.4168C23.9633 35.4168 26.81 35.4135 28.9766 35.1235C31.1083 34.8368 32.3933 34.2902 33.3433 33.3418C34.2916 32.3918 34.8366 31.1085 35.1233 28.9768C35.4133 26.8102 35.4166 23.9635 35.4166 20.0002C35.4166 16.0368 35.4133 13.1902 35.1233 11.0235C34.8366 8.89183 34.29 7.60683 33.3416 6.65683C32.3916 5.7085 31.1083 5.1635 28.9766 4.87683ZM29.31 2.40016C31.7183 2.7235 33.6183 3.40016 35.11 4.89016C36.6016 6.38183 37.2766 8.28183 37.6 10.6902C37.9166 13.0418 37.9166 16.0568 37.9166 19.9052V20.0952C37.9166 23.9435 37.9166 26.9585 37.6 29.3118C37.2766 31.7185 36.6 33.6185 35.11 35.1102C33.6183 36.6018 31.7183 37.2768 29.31 37.6002C26.9583 37.9168 23.9433 37.9168 20.095 37.9168H19.905C16.0566 37.9168 13.0416 37.9168 10.6883 37.6002C8.28165 37.2768 6.38165 36.6002 4.88998 35.1102C3.39831 33.6185 2.72331 31.7185 2.39998 29.3102C2.08331 26.9585 2.08331 23.9435 2.08331 20.0952V19.9052C2.08331 16.0568 2.08331 13.0418 2.39998 10.6885C2.72331 8.28183 3.39998 6.38183 4.88998 4.89016C6.38165 3.3985 8.28165 2.7235 10.69 2.40016C13.0416 2.0835 16.0566 2.0835 19.905 2.0835H20.095C23.9433 2.0835 26.9566 2.0835 29.31 2.40016Z" fill="#26364B"/>
<path fill-rule="evenodd" clip-rule="evenodd" d="M25.8933 10.6085C26.3827 10.4098 26.9198 10.3598 27.4374 10.4646C27.9551 10.5695 28.4303 10.8246 28.8038 11.198C29.1772 11.5715 29.4323 12.0468 29.5372 12.5644C29.6421 13.0821 29.592 13.6191 29.3933 14.1085L23.5383 29.3835C23.3372 29.9211 22.9796 30.3863 22.5118 30.7189C22.044 31.0516 21.4872 31.2366 20.9133 31.2502C19.83 31.2735 18.6833 30.6585 18.29 29.3668L16.53 23.5718C16.5224 23.5475 16.5092 23.5253 16.4917 23.5068C16.4735 23.4901 16.4519 23.4775 16.4283 23.4702L10.6333 21.7102C9.34166 21.3168 8.725 20.1685 8.75 19.0852C8.76384 18.5115 8.949 17.9552 9.28166 17.4877C9.61433 17.0202 10.0793 16.6629 10.6167 16.4618L25.8933 10.6085ZM26.9517 12.9202C26.8957 12.9107 26.8383 12.9182 26.7867 12.9418L11.5117 18.7952C11.4376 18.8199 11.3728 18.8667 11.3261 18.9292C11.2793 18.9918 11.2528 19.0671 11.25 19.1452C11.247 19.1882 11.2568 19.2311 11.2783 19.2685C11.2833 19.2768 11.2967 19.2985 11.3617 19.3185L17.155 21.0785C18.005 21.3368 18.6633 21.9952 18.9217 22.8452L20.6817 28.6402C20.7017 28.7018 20.7233 28.7168 20.73 28.7218C20.7467 28.7318 20.7867 28.7518 20.8567 28.7502C20.9341 28.7467 21.0087 28.7199 21.0706 28.6732C21.1325 28.6264 21.1788 28.562 21.2033 28.4885L27.0567 13.2118C27.0799 13.1607 27.0874 13.1039 27.0783 13.0485C27.0717 13.0172 27.0563 12.9885 27.0338 12.9657C27.0114 12.943 26.9829 12.9271 26.9517 12.9202Z" fill="#26364B"/>
</svg>
