<svg width="10" height="10" viewBox="0 0 10 10" fill="none" xmlns="http://www.w3.org/2000/svg">
<path d="M9.93337 0.516417C9.84884 0.312891 9.68711 0.151156 9.48358 0.0666344C9.38344 0.0239542 9.27591 0.00131602 9.16707 0H0.837761C0.616853 0 0.404994 0.0877551 0.24879 0.24396C0.0925847 0.400165 0.00482962 0.612024 0.00482962 0.832931C0.00482962 1.05384 0.0925847 1.2657 0.24879 1.4219C0.404994 1.57811 0.616853 1.66586 0.837761 1.66586H7.15971L0.24638 8.57086C0.16831 8.64829 0.106345 8.74041 0.0640583 8.84191C0.0217715 8.94341 0 9.05228 0 9.16224C0 9.2722 0.0217715 9.38107 0.0640583 9.48256C0.106345 9.58407 0.16831 9.67619 0.24638 9.75362C0.323811 9.83169 0.415934 9.89366 0.517435 9.93594C0.618935 9.97823 0.727804 10 0.837761 10C0.947717 10 1.05659 9.97823 1.15809 9.93594C1.25959 9.89366 1.35171 9.83169 1.42914 9.75362L8.33414 2.84029V9.16224C8.33414 9.38315 8.42189 9.59501 8.5781 9.75121C8.7343 9.90742 8.94616 9.99517 9.16707 9.99517C9.38798 9.99517 9.59984 9.90742 9.75604 9.75121C9.91225 9.59501 10 9.38315 10 9.16224V0.832931C9.99868 0.724086 9.97605 0.616554 9.93337 0.516417Z" fill="#6E819A"/>
</svg>
