<svg width="30" height="30" viewBox="0 0 30 30" fill="none" xmlns="http://www.w3.org/2000/svg">
<path d="M22.3994 8.275C22.2726 7.96956 22.0299 7.72684 21.7244 7.6C21.5742 7.53595 21.4128 7.50197 21.2494 7.5H8.74944C8.41791 7.5 8.09997 7.6317 7.86555 7.86612C7.63113 8.10054 7.49944 8.41848 7.49944 8.75C7.49944 9.08152 7.63113 9.39946 7.86555 9.63388C8.09997 9.8683 8.41791 10 8.74944 10H18.2369L7.86194 20.3625C7.74477 20.4787 7.65178 20.617 7.58832 20.7693C7.52486 20.9216 7.49219 21.085 7.49219 21.25C7.49219 21.415 7.52486 21.5784 7.58832 21.7307C7.65178 21.883 7.74477 22.0213 7.86194 22.1375C7.97814 22.2547 8.11639 22.3477 8.26871 22.4111C8.42104 22.4746 8.58442 22.5072 8.74944 22.5072C8.91445 22.5072 9.07783 22.4746 9.23016 22.4111C9.38248 22.3477 9.52073 22.2547 9.63694 22.1375L19.9994 11.7625V21.25C19.9994 21.5815 20.1311 21.8995 20.3656 22.1339C20.6 22.3683 20.9179 22.5 21.2494 22.5C21.581 22.5 21.8989 22.3683 22.1333 22.1339C22.3677 21.8995 22.4994 21.5815 22.4994 21.25V8.75C22.4975 8.58665 22.4635 8.42528 22.3994 8.275Z" fill="#ED4B58"/>
</svg>
