<svg width="24" height="24" viewBox="0 0 24 24" fill="none" xmlns="http://www.w3.org/2000/svg">
<path d="M12.0007 2.00001C10.7001 1.95278 9.40338 2.16913 8.18854 2.63605C6.9737 3.10297 5.86587 3.8108 4.93168 4.71696C3.99749 5.62313 3.25625 6.7089 2.75256 7.90895C2.24887 9.10901 1.99313 10.3986 2.00073 11.7C1.98397 13.0512 2.25535 14.3904 2.79679 15.6285C3.33822 16.8665 4.13728 17.975 5.14073 18.88C5.2204 18.951 5.28526 19.037 5.3316 19.1331C5.37793 19.2292 5.40482 19.3335 5.41073 19.44V21.22C5.41621 21.3512 5.45352 21.4791 5.51943 21.5927C5.58534 21.7063 5.67789 21.8022 5.78909 21.8721C5.90029 21.9419 6.02682 21.9837 6.15776 21.9938C6.2887 22.0039 6.42013 21.982 6.54073 21.93L8.54073 21.06C8.71151 20.9955 8.89995 20.9955 9.07073 21.06C10.0162 21.3152 10.9915 21.443 11.9707 21.44C14.5486 21.444 17.0225 20.4237 18.8482 18.6037C20.6739 16.7837 21.7018 14.3129 21.7057 11.735C21.7097 9.1571 20.6895 6.6832 18.8694 4.85754C17.0494 3.03187 14.5786 2.00399 12.0007 2.00001ZM18.0007 9.46001L15.0707 14.12C14.9602 14.2955 14.8145 14.4461 14.6429 14.5624C14.4712 14.6787 14.2773 14.7582 14.0734 14.7957C13.8695 14.8333 13.66 14.8282 13.4582 14.7808C13.2563 14.7333 13.0665 14.6445 12.9007 14.52L10.5607 12.77C10.4569 12.6921 10.3306 12.65 10.2007 12.65C10.0709 12.65 9.94459 12.6921 9.84073 12.77L6.68073 15.17C6.59272 15.2379 6.48351 15.2724 6.37249 15.2674C6.26146 15.2623 6.15581 15.2181 6.07428 15.1426C5.99275 15.0671 5.94063 14.9651 5.92717 14.8548C5.9137 14.7445 5.93976 14.6329 6.00073 14.54L8.93073 9.88001C9.04124 9.70456 9.18691 9.55393 9.35857 9.43763C9.53022 9.32132 9.72413 9.24187 9.92804 9.20428C10.132 9.16669 10.3414 9.17179 10.5433 9.21925C10.7451 9.2667 10.9349 9.35549 11.1007 9.48001L13.4407 11.23C13.5446 11.3079 13.6709 11.35 13.8007 11.35C13.9306 11.35 14.0569 11.3079 14.1607 11.23L17.3207 8.83001C17.4087 8.76214 17.5179 8.72765 17.629 8.73266C17.74 8.73768 17.8457 8.78188 17.9272 8.85741C18.0087 8.93294 18.0608 9.03492 18.0743 9.14524C18.0878 9.25556 18.0617 9.36708 18.0007 9.46001Z" fill="#ED4B58"/>
</svg>
