<svg width="40" height="40" viewBox="0 0 40 40" fill="none" xmlns="http://www.w3.org/2000/svg">
<path fill-rule="evenodd" clip-rule="evenodd" d="M17.1266 3.75833C17.265 3.75 17.4116 3.75 17.6016 3.75H22.4C22.5883 3.75 22.735 3.75 22.875 3.75833C23.7409 3.81097 24.5742 4.1083 25.2778 4.61576C25.9815 5.12322 26.5266 5.81996 26.85 6.625C26.9016 6.75333 26.95 6.89167 27.0083 7.07167L27.0133 7.08833C27.1533 7.46167 27.4716 7.88667 27.9183 8.22667C27.9683 8.26444 28.0183 8.3 28.0683 8.33333C31.6566 8.33833 33.5316 8.40333 34.8216 9.455C35.0883 9.67167 35.3294 9.91278 35.545 10.1783C36.6666 11.5567 36.6666 13.5983 36.6666 17.6817C36.6666 18.7183 36.6666 19.235 36.4166 19.64C36.3674 19.719 36.3117 19.7937 36.25 19.8633C35.9333 20.22 35.4383 20.3683 34.4466 20.6667L26.6666 23V21.6667C26.6666 20.7826 26.3155 19.9348 25.6903 19.3096C25.0652 18.6845 24.2174 18.3333 23.3333 18.3333H16.6666C15.7826 18.3333 14.9347 18.6845 14.3096 19.3096C13.6845 19.9348 13.3333 20.7826 13.3333 21.6667V23L5.55331 20.6667C4.56165 20.3683 4.06498 20.22 3.74998 19.8633C3.68829 19.7937 3.63254 19.719 3.58331 19.64C3.33331 19.235 3.33331 18.7183 3.33331 17.6817C3.33331 13.5983 3.33331 11.5567 4.45498 10.1783C4.67165 9.91167 4.91276 9.67056 5.17831 9.455C6.46998 8.405 8.34331 8.33833 11.9333 8.33333C11.9833 8.3 12.0333 8.26444 12.0833 8.22667C12.5283 7.88667 12.8483 7.46 12.9866 7.08833C13.05 6.89833 13.0966 6.755 13.15 6.62333C13.4736 5.8186 14.0189 5.12221 14.7225 4.61506C15.4261 4.10791 16.2592 3.81083 17.125 3.75833M24.6966 8.03C24.7355 8.13333 24.78 8.23444 24.83 8.33333H15.1683C15.2161 8.23333 15.2605 8.13222 15.3016 8.03V8.025L15.31 8.00833L15.3183 7.98833L15.3266 7.96833L15.3316 7.95167L15.335 7.94333L15.3416 7.92333L15.3483 7.90333L15.3516 7.89333L15.3566 7.88L15.36 7.86833L15.3633 7.85833C15.4283 7.665 15.4483 7.60333 15.4683 7.55667C15.6152 7.1907 15.863 6.87396 16.1828 6.64324C16.5026 6.41252 16.8814 6.27732 17.275 6.25333C17.3283 6.25 17.395 6.25 17.6333 6.25H22.3633C22.6016 6.25 22.6683 6.25 22.7216 6.25333C23.525 6.30333 24.2283 6.81 24.53 7.55667C24.5466 7.60333 24.5683 7.66167 24.6333 7.85833L24.6366 7.86833L24.64 7.88L24.645 7.89333L24.6483 7.90333L24.655 7.92333L24.6616 7.94333L24.665 7.95167L24.6716 7.96833L24.6783 7.98833L24.6866 8.00833L24.6933 8.025L24.6966 8.03ZM23.3333 20.8333H16.6666C16.4456 20.8333 16.2337 20.9211 16.0774 21.0774C15.9211 21.2337 15.8333 21.4457 15.8333 21.6667V25.27C15.8334 25.4364 15.8832 25.599 15.9765 25.7369C16.0698 25.8747 16.2022 25.9814 16.3566 26.0433L17.5233 26.51C19.1131 27.1462 20.8868 27.1462 22.4766 26.51L23.6433 26.0433C23.7978 25.9814 23.9302 25.8747 24.0235 25.7369C24.1167 25.599 24.1666 25.4364 24.1666 25.27V21.6667C24.1666 21.4457 24.0788 21.2337 23.9226 21.0774C23.7663 20.9211 23.5543 20.8333 23.3333 20.8333ZM13.35 25.6167L5.00998 23.1133C5.05998 28.3033 5.36331 33.085 7.19665 34.7133C9.39331 36.6667 12.93 36.6667 20 36.6667C27.07 36.6667 30.6066 36.6667 32.8033 34.7133C34.6366 33.085 34.94 28.3033 34.99 23.1133L26.6483 25.615C26.5855 26.2191 26.3589 26.7945 25.9929 27.2792C25.6269 27.7638 25.1355 28.1393 24.5716 28.365L23.405 28.8317C21.2192 29.7062 18.7808 29.7062 16.595 28.8317L15.4283 28.365C14.8645 28.1393 14.373 27.7638 14.007 27.2792C13.6411 26.7945 13.4144 26.2191 13.3516 25.615" fill="#26364B"/>
</svg>
