<svg width="40" height="40" viewBox="0 0 40 40" fill="none" xmlns="http://www.w3.org/2000/svg">
<path fill-rule="evenodd" clip-rule="evenodd" d="M20 4.58301C15.9113 4.58301 11.99 6.20726 9.09881 9.09844C6.20763 11.9896 4.58337 15.9109 4.58337 19.9997C4.58337 24.0884 6.20763 28.0097 9.09881 30.9009C11.99 33.7921 15.9113 35.4163 20 35.4163C24.0888 35.4163 28.0101 33.7921 30.9013 30.9009C33.7925 28.0097 35.4167 24.0884 35.4167 19.9997C35.4167 15.9109 33.7925 11.9896 30.9013 9.09844C28.0101 6.20726 24.0888 4.58301 20 4.58301ZM2.08337 19.9997C2.08337 10.1047 10.105 2.08301 20 2.08301C29.895 2.08301 37.9167 10.1047 37.9167 19.9997C37.9167 29.8947 29.895 37.9163 20 37.9163C10.105 37.9163 2.08337 29.8947 2.08337 19.9997ZM20 12.083C20.3316 12.083 20.6495 12.2147 20.8839 12.4491C21.1183 12.6835 21.25 13.0015 21.25 13.333V19.483L25.05 23.283C25.1729 23.3974 25.2714 23.5354 25.3397 23.6888C25.408 23.8421 25.4447 24.0076 25.4477 24.1755C25.4507 24.3433 25.4198 24.51 25.3569 24.6657C25.294 24.8213 25.2005 24.9627 25.0818 25.0814C24.9631 25.2001 24.8217 25.2937 24.666 25.3565C24.5104 25.4194 24.3437 25.4503 24.1758 25.4473C24.008 25.4444 23.8425 25.4076 23.6891 25.3393C23.5358 25.271 23.3978 25.1725 23.2834 25.0497L19.1167 20.883C18.8822 20.6488 18.7503 20.3311 18.75 19.9997V13.333C18.75 13.0015 18.8817 12.6835 19.1162 12.4491C19.3506 12.2147 19.6685 12.083 20 12.083Z" fill="#26364B"/>
</svg>
