<svg width="39" height="40" viewBox="0 0 39 40" fill="none" xmlns="http://www.w3.org/2000/svg">
<g clip-path="url(#clip0_1_354)">
<path d="M12.3221 14.0534C12.9322 13.5204 13.8093 13.5323 14.3118 13.6869C13.9833 13.284 13.2143 12.9526 12.9889 12.9127C12.8165 12.9768 12.3221 13.4833 12.3221 14.0534Z" fill="#C7C7CC"/>
<path d="M27.3267 12.4692C28.0223 12.5743 28.2423 13.0436 28.2843 13.1869C28.5205 12.9887 28.7388 12.299 28.6535 11.8465C28.2525 9.70745 23.2677 11.1244 20.7569 10.216C20.7089 10.8394 21.5297 11.8383 22.3149 12.2086C20.9726 13.3697 19.7674 15.7101 19.5248 18.569C19.2821 15.7101 18.077 13.3697 16.7346 12.2086C17.5198 11.8383 18.3412 10.8394 18.2927 10.216C15.7818 11.1244 10.797 9.70745 10.3949 11.8465C10.3106 12.299 10.529 12.9887 10.7651 13.1869C10.8073 13.0436 11.0278 12.5743 11.7227 12.4692C15.2349 11.9401 18.1672 17.3367 15.5203 19.5189C15.4798 19.5523 15.5025 19.6131 15.557 19.6131H23.4931C23.5471 19.6131 23.5698 19.5523 23.5298 19.5189C20.8822 17.3367 23.8146 11.9401 27.3267 12.4692Z" fill="#C7C7CC"/>
<path d="M22.503 25.4579C22.6381 24.4844 21.9782 24.2041 21.2881 24.3185C21.2022 23.9833 21.1319 23.6908 21.052 23.4008C20.9882 23.1665 20.965 22.7258 21.2374 22.7258C21.3843 22.7258 21.3255 23.1357 21.3114 23.312C21.2989 23.4672 21.3551 23.5608 21.4811 23.5652C21.56 23.5684 21.6584 23.4683 21.7167 23.4019C22.1117 22.9564 22.2036 22.2668 21.7405 21.9342C21.3536 21.6546 20.3835 21.8626 20.1165 22.2603C20.0765 22.1105 19.8842 21.8632 19.7918 21.7554C19.702 21.6503 19.6787 21.5781 19.8031 21.4859C19.8615 21.4412 20.0382 21.2662 20.0382 21.0851C20.0382 20.9779 19.9549 20.7801 19.6901 20.7801C19.4815 20.7801 19.2497 20.924 19.2497 21.2457C19.2497 21.3168 19.267 21.3934 19.3135 21.4757C19.1815 21.4542 18.8233 21.4628 18.6391 21.5081L21.1827 28.4677C21.9113 28.1094 22.4446 27.542 22.4446 26.9332C22.4446 26.4143 21.6783 26.5862 21.306 26.9914C21.186 26.333 21.0795 25.7258 20.9633 25.1201C20.9315 24.9531 21.0163 24.8934 21.1509 24.8426C21.6026 24.6756 22.3107 24.8109 22.2863 25.4612C22.2809 25.6083 22.4879 25.6083 22.503 25.4579Z" fill="#C7C7CC"/>
<path d="M29.5079 6.93752C29.4447 6.736 31.5042 6.73062 31.5042 8.01559C31.5042 8.87711 30.2725 9.28497 30.2725 10.1789C30.2725 10.5948 30.7217 10.9003 30.8595 10.9003C30.5423 9.46552 31.8538 10.216 32.2084 10.4844C31.5042 8.5549 33.0893 8.56731 32.9331 7.68207C32.8245 7.06414 31.447 7.25048 30.9481 6.93752C30.064 6.38248 29.0172 4.22193 28.3277 6.38248C29.6133 7.57269 28.8654 9.32442 27.2328 9.32442C27.2328 9.32442 27.2235 9.58138 27.2387 9.6018C29.1858 9.50649 29.864 8.08028 29.5079 6.93752Z" fill="#C7C7CC"/>
<path d="M26.0406 12.9127C25.8142 12.9531 25.0468 13.284 24.7171 13.6874C25.2202 13.5323 26.0974 13.5204 26.7069 14.0534C26.7069 13.4833 26.213 12.9774 26.0406 12.9127Z" fill="#C7C7CC"/>
<path d="M18.5039 25.6083C18.3699 26.007 18.4531 26.6934 18.7157 26.93C18.259 26.93 17.7171 27.0151 17.4453 27.208H17.4447C17.3798 26.8534 17.8743 26.2198 18.5039 25.6083ZM16.6671 27.0458C16.5579 27.2096 16.5049 27.4898 16.5049 27.6094C16.5049 28.299 17.3291 28.438 17.6441 28.292C18.5541 29.1703 20.3419 28.9359 20.9401 28.6412L17.7927 20.0313C17.7285 19.8686 17.4977 19.9461 17.5544 20.1153L18.0883 21.5953C17.6307 21.7041 16.8951 22.0367 16.8951 22.4774C16.8951 23.0636 17.936 23.4455 18.5374 23.3997C18.5077 23.5334 18.5422 23.6524 18.6358 23.7618C18.4175 23.7618 18.0056 23.8632 17.87 24.0081C17.5511 23.7117 17.0518 23.604 16.8146 23.7844C16.5758 23.9666 16.5687 24.2742 16.8179 24.6223C16.9912 24.8632 17.0561 25.1007 16.8616 25.3804C17.5868 25.3804 17.3194 24.4401 17.6036 24.4401C17.5663 24.6223 17.5896 24.833 17.6716 25.0673C17.7268 25.2225 17.7268 25.333 17.6327 25.4828C17.3988 25.8556 17.0351 26.7123 17.0842 27.4871C16.8465 27.4854 16.7255 27.4278 16.8092 27.104C16.8406 26.9833 16.766 26.8971 16.6671 27.0458Z" fill="#C7C7CC"/>
<path d="M38.5891 17.3863C38.1027 17.632 35.2504 18.9639 31.5966 18.4714C31.6344 18.2974 31.6664 18.1229 31.6928 17.9466C34.1241 17.6568 36.1009 17.2457 37.3613 16.5469C38.7972 15.7499 39.4251 13.848 38.6998 12.4327C38.6815 12.3971 38.6297 12.3906 38.6031 12.4203C38.2059 12.8761 35.7086 15.5851 31.7739 16.4268C31.7642 16.2236 31.7452 16.021 31.7183 15.8194C33.6291 14.7386 35.4947 13.4941 36.3836 12.3556C37.7265 10.6342 37.6028 8.43917 36.3248 7.31945C36.3118 7.30814 36.2945 7.30276 36.2766 7.30552C36.2594 7.30758 36.2441 7.31793 36.2344 7.33241C35.8302 7.99724 32.0457 14.0959 27.8905 16.7284C27.8401 16.7608 27.7888 16.7926 27.7375 16.8233C27.6181 16.8954 27.6051 17.0495 27.7067 17.1417C28.1854 17.5743 28.4833 18.1767 28.4833 18.8454C28.4833 20.0081 27.5846 20.9752 26.3962 21.1848C25.7926 21.3017 24.9203 21.2677 24.0832 20.9919C24.0454 20.9796 24.0064 21.0043 24.0064 21.0421V24.7247C24.0064 24.784 24.0973 24.7985 24.1183 24.7419C24.6274 23.3977 26.1508 23.112 26.8172 23.112C27.0571 24.549 27.4857 25.7392 28.0417 26.3798C28.948 27.4208 30.4278 27.4057 31.0691 26.6864C31.0799 26.6746 31.0843 26.6584 31.0816 26.6428C31.079 26.6272 31.0691 26.6131 31.0552 26.6056C30.6779 26.3895 28.5211 25.0695 28.0893 22.9062C28.2601 22.8476 28.426 22.7812 28.5854 22.7026C29.2814 23.8513 30.2948 24.8745 31.1108 25.2651C32.4812 25.9208 33.7356 25.6018 34.2922 24.6428C34.3123 24.6088 34.2879 24.5668 34.2468 24.563C33.3989 24.4952 30.7973 23.7521 29.6899 21.9407C29.8165 21.8248 29.9408 21.7037 30.0564 21.5749C31.2156 22.4548 32.8542 23.2323 34.028 23.3912C35.4006 23.5771 36.9559 23.1407 36.9937 21.549C36.9943 21.5167 36.9656 21.4909 36.9321 21.493C36.4442 21.5221 33.2124 21.6622 30.9103 20.3448C30.9903 20.1928 31.0643 20.0388 31.1335 19.8821C31.1335 19.8821 34.6127 20.7015 36.261 20.4299C37.8995 20.1606 38.8588 18.9429 38.6734 17.4283C38.6685 17.3906 38.6243 17.3686 38.5891 17.3863Z" fill="#C7C7CC"/>
<path d="M7.86849 19.8821C7.93766 20.0388 8.01224 20.1934 8.09276 20.3448C5.79112 21.6617 2.56104 21.5226 2.07089 21.493C2.03631 21.4909 2.00765 21.5183 2.00819 21.5495C2.04657 23.1407 3.6019 23.5775 4.97455 23.3912C6.14726 23.2327 7.78689 22.4548 8.94555 21.5754C9.06173 21.7041 9.18548 21.8248 9.31194 21.9412C8.20409 23.7521 5.60306 24.4952 4.75514 24.563C4.71461 24.5668 4.69028 24.6088 4.70975 24.6428C5.26637 25.6018 6.52122 25.9208 7.89173 25.2657C8.70722 24.8745 9.7205 23.8513 10.4166 22.7032C10.5765 22.7812 10.743 22.8476 10.9127 22.9062C10.4809 25.0695 8.32406 26.3901 7.94739 26.6061C7.93334 26.6137 7.9236 26.6272 7.92091 26.6428C7.91821 26.6584 7.92253 26.6746 7.93279 26.6864C8.57428 27.4062 10.0545 27.4208 10.9608 26.3798C11.5174 25.7392 11.9449 24.549 12.1848 23.112C12.8517 23.112 14.3745 23.3977 14.8836 24.7419C14.9058 24.7985 14.9961 24.784 14.9961 24.7247V21.0421C14.9961 21.0043 14.9566 20.9796 14.9188 20.9919C14.0816 21.2677 13.21 21.3017 12.6069 21.1848C11.418 20.9752 10.5187 20.0081 10.5187 18.8454C10.5187 18.1767 10.817 17.5738 11.2953 17.1407C11.3974 17.0495 11.3839 16.8954 11.2656 16.8233C11.2137 16.792 11.1618 16.7608 11.111 16.7284C6.95843 14.097 3.1755 8.00276 2.76802 7.33352C2.74911 7.30221 2.70372 7.29586 2.67561 7.32C1.39969 8.44014 1.27539 10.6348 2.61887 12.3556C3.50732 13.4935 5.37283 14.7386 7.28321 15.8194C7.25619 16.021 7.23782 16.2236 7.22809 16.4268C3.29655 15.5851 0.800904 12.881 0.399915 12.4223C0.373434 12.3912 0.319933 12.3977 0.301559 12.4332C-0.421521 13.8486 0.206445 15.7499 1.64126 16.5469C2.90097 17.2451 4.87781 17.6563 7.30969 17.9466C7.33563 18.1223 7.36752 18.2974 7.40534 18.4709C3.75536 18.9633 0.904664 17.6342 0.414505 17.3869C0.377758 17.3686 0.333983 17.3912 0.32912 17.4294C0.144838 18.944 1.10354 20.1606 2.74154 20.4299C4.38928 20.7015 7.86849 19.8821 7.86849 19.8821Z" fill="#C7C7CC"/>
<path d="M6.79413 10.4844C7.14811 10.216 8.46023 9.46552 8.14355 10.9003C8.28082 10.9003 8.72991 10.5948 8.72991 10.1789C8.72991 9.28497 7.49775 8.87711 7.49775 8.01559C7.49775 6.73062 9.55728 6.736 9.49406 6.93752C9.13846 8.08028 9.81722 9.50704 11.7644 9.6018C11.7784 9.58138 11.7692 9.32442 11.7692 9.32442C10.1377 9.32442 9.38976 7.57269 10.6749 6.38248C9.98476 4.22193 8.93851 6.38248 8.05384 6.93752C7.55504 7.25104 6.17751 7.06414 6.06943 7.68207C5.91379 8.56731 7.49775 8.5549 6.79413 10.4844Z" fill="#C7C7CC"/>
<path d="M24.7171 6.59586C24.7171 7.08731 25.0306 7.4429 25.1948 7.54855C25.3483 7.4429 25.6725 7.08731 25.6725 6.59586C25.6725 6.472 25.5029 6.19876 25.1948 6.19876C24.8863 6.19876 24.7171 6.472 24.7171 6.59586Z" fill="#C7C7CC"/>
<path d="M18.6568 1.23435L19.1924 1.17614L19.1361 1.80759H19.8636L19.8074 1.17614L20.3429 1.23435V0.546347L19.8074 0.604554L19.8636 2.74181e-06H19.1361L19.1924 0.604554L18.6568 0.546347V1.23435Z" fill="#C7C7CC"/>
<path d="M18.82 2.93324C18.82 3.6309 19.2654 4.13573 19.4984 4.28607C19.7161 4.13573 20.1765 3.6309 20.1765 2.93324C20.1765 2.75752 19.9361 2.36966 19.4984 2.36966C19.0605 2.36966 18.82 2.75752 18.82 2.93324Z" fill="#C7C7CC"/>
<path d="M15.0614 9.59807C17.1799 9.59807 18.1322 8.30221 18.4202 7.17834C18.8968 7.17834 19.3204 7.17834 20.5774 7.17834C20.8655 8.30221 21.8177 9.59807 23.9368 9.59807H26.4557C26.8096 9.2451 27.1457 8.64704 27.1457 8.03669C27.1457 7.15793 26.3015 7.14814 26.0676 7.14869C25.9043 7.82538 25.4553 8.13903 25.2029 8.26179C24.9348 8.14607 24.4826 7.8491 24.3199 7.14648C24.0778 7.15034 23.2455 7.1611 23.2455 8.03669C23.2455 8.22786 23.2888 8.45103 23.3844 8.7069C23.4353 8.84262 23.5567 9.04262 23.6718 9.21766C22.7781 9.09531 21.6372 8.48552 21.387 7.17834C21.387 7.17834 22.0474 6.13255 22.2134 5.7091C22.8088 4.1869 21.8415 3.54041 20.7293 3.54041C20.5743 4.26179 20.0646 4.78234 19.4978 5.03503C18.9314 4.78234 18.4234 4.26179 18.2683 3.54041C17.1561 3.54041 16.1894 4.1869 16.7842 5.7091C16.9503 6.13255 17.6111 7.17834 17.6111 7.17834C17.3603 8.48552 16.2195 9.09531 15.3257 9.21766C15.4408 9.04262 15.5624 8.84262 15.6131 8.7069C15.7089 8.45103 15.752 8.22786 15.752 8.03669C15.752 7.1611 14.9199 7.15034 14.6778 7.14648C14.5151 7.8491 14.0627 8.14607 13.7952 8.26179C13.5429 8.13903 13.0938 7.82538 12.9306 7.14869C12.696 7.14814 11.8519 7.15793 11.8519 8.03669C11.8519 8.64704 12.188 9.2451 12.542 9.59807H15.0614Z" fill="#C7C7CC"/>
<path d="M25.8434 4.77421L25.4272 4.81945L25.4709 4.32276H24.9209L24.9651 4.81945L24.549 4.77421V5.29531L24.9651 5.24993L24.9209 5.74676H25.4709L25.4272 5.24993L25.8434 5.29531V4.77421Z" fill="#C7C7CC"/>
<path d="M14.0768 4.32276H13.5272L13.5704 4.81945L13.1548 4.77421V5.29531L13.5704 5.24993L13.5272 5.74676H14.0768L14.0331 5.24993L14.4491 5.29531V4.77421L14.0331 4.81945L14.0768 4.32276Z" fill="#C7C7CC"/>
<path d="M13.3251 6.59586C13.3251 7.08731 13.6493 7.4429 13.8028 7.54855C13.9671 7.4429 14.2811 7.08731 14.2811 6.59586C14.2811 6.472 14.1114 6.19876 13.8028 6.19876C13.4948 6.19876 13.3251 6.472 13.3251 6.59586Z" fill="#C7C7CC"/>
<path d="M29.7803 28.9714L30.2433 28.9213L30.1948 29.4666H30.8233L30.7746 28.9213L31.2372 28.9714V28.3766L30.7746 28.4267L30.8233 27.9046H30.1948L30.2433 28.4267L29.7803 28.3766V28.9714Z" fill="#C7C7CC"/>
<path d="M30.8633 29.944V31.5889H30.4942H30.4936H30.1548V29.9402C29.1944 30.0684 28.4212 30.7317 28.1984 31.5938C27.4316 31.6972 25.3634 31.2387 25.565 30.9337C27.8434 27.7387 26.1005 25.8367 24.0064 25.9423V28.0884C24.0064 28.7775 23.4033 29.3357 22.6603 29.3357H21.2141C20.1765 29.3357 19.501 30.3755 19.501 30.3755C19.501 30.3755 18.8254 29.3357 17.7884 29.3357H16.3417C15.5981 29.3357 14.9965 28.7775 14.9965 28.0884V25.9423C12.9019 25.8367 11.1575 27.7392 13.437 30.9343C13.6369 31.236 11.5001 31.7198 10.4982 31.5975C10.2339 31.3249 9.85292 31.1525 9.42652 31.1525C9.24548 31.1525 9.06551 31.1848 8.89583 31.2478C8.89583 31.2478 4.95726 27.5302 4.88485 27.4935L4.91728 27.4181C5.14155 27 4.79838 26.5442 4.58114 26.5765C4.83351 26.2748 4.84539 24.9548 3.44626 24.6492C3.48732 24.9143 3.50787 25.4559 3.50787 25.4559C3.50787 25.4559 2.42811 24.8739 1.88607 25.3761C1.40996 25.9381 2.0709 26.958 2.0709 26.958C2.0709 26.958 1.51859 26.9714 1.24622 26.9488C1.64666 28.2985 2.98961 28.2031 3.2798 27.9364C3.26089 28.1514 3.74672 28.4574 4.15799 28.2118L4.33903 28.1245C4.37092 28.1676 8.20679 31.7807 8.20679 31.7807C8.03062 32.0415 7.94685 32.361 8.00468 32.7026C8.09547 33.2354 8.54078 33.6773 9.10984 33.7915C9.51136 33.8723 9.88912 33.7942 10.1918 33.6175L11.2072 34.5571C11.298 34.639 11.4201 34.6902 11.5563 34.6805C11.8049 34.6638 11.9908 34.4628 11.9719 34.2328C11.9638 34.1288 11.9108 34.0399 11.8373 33.9725C11.8211 33.9542 10.803 33.0124 10.803 33.0124C11.6428 32.4251 13.2073 32.0113 14.5064 32.0113C14.7345 32.0113 14.8415 31.819 14.7632 31.6298C14.1746 30.2193 15.4398 29.1977 16.7482 30.0296C17.3194 30.3922 17.8992 31.1067 18.3358 32.2985C16.1888 32.8174 13.4932 34.2451 12.9473 35.8033C12.7377 36.4052 13.431 37.2258 14.2735 37.3912C14.2886 37.3944 14.3044 37.3917 14.3167 37.3831C14.3297 37.375 14.339 37.3615 14.3416 37.347C14.7821 35.0199 17.2917 33.2861 18.598 32.9919C18.6633 33.167 18.6417 33.1105 18.7077 33.285C17.2852 33.9558 15.9062 35.3702 15.5116 37.0517C15.3311 37.8217 16.1926 38.5162 16.9038 38.7058C16.9393 38.7155 16.9745 38.6907 16.9767 38.6562C17.1119 36.5296 18.0537 34.7236 18.8974 33.9019C18.9206 34.0625 18.9379 34.2241 18.9493 34.3858C18.9493 34.3858 18.0857 36.7861 18.0857 38.5372C18.0857 39.3518 19.3 39.9203 19.4794 40C19.7037 39.9203 20.9168 39.3518 20.9168 38.5372C20.9168 36.7856 20.0533 34.3858 20.0533 34.3858C20.0646 34.2241 20.0825 34.0625 20.1057 33.9019C20.9488 34.7236 21.8912 36.5291 22.0264 38.6557C22.028 38.6902 22.0636 38.7155 22.0987 38.7058C22.8105 38.5162 23.6714 37.8217 23.4915 37.0517C23.0963 35.3702 21.7177 33.9558 20.2954 33.285C20.3608 33.1105 20.3392 33.167 20.4045 32.9919C21.7113 33.2861 24.2204 35.0199 24.6609 37.347C24.6635 37.3615 24.6728 37.375 24.6858 37.3831C24.6981 37.3912 24.7139 37.3944 24.729 37.3912C25.5704 37.2258 26.2655 36.4052 26.0541 35.8039C25.5105 34.2451 22.8137 32.8174 20.6667 32.299C21.1044 31.1067 21.6842 30.3922 22.2549 30.0296C23.5627 29.1977 24.8279 30.2198 24.2394 31.6304C24.1605 31.819 24.2674 32.0113 24.4961 32.0113C25.952 32.0113 27.7418 32.5313 28.4714 33.2311C28.8842 33.8664 29.636 34.2915 30.4947 34.2915C31.7988 34.2915 32.8557 33.312 32.8557 32.1045C32.8557 31.0124 31.9916 30.1078 30.8633 29.944Z" fill="#C7C7CC"/>
</g>
<defs>
<clipPath id="clip0_1_354">
<rect width="39" height="40" fill="white"/>
</clipPath>
</defs>
</svg>
