<svg width="40" height="40" viewBox="0 0 40 40" fill="none" xmlns="http://www.w3.org/2000/svg">
<path fill-rule="evenodd" clip-rule="evenodd" d="M9.37331 7.37329C6.60831 8.63662 4.58331 11.6433 4.58331 15.2283C4.58331 18.89 6.08331 21.7133 8.22998 24.1333C10.0016 26.1266 12.145 27.78 14.235 29.39C14.7328 29.7733 15.2244 30.1555 15.71 30.5366C16.5866 31.2283 17.3683 31.8333 18.1233 32.275C18.8783 32.7166 19.4833 32.9166 20 32.9166C20.5166 32.9166 21.1233 32.7166 21.8766 32.275C22.6316 31.8333 23.4133 31.2283 24.29 30.5366C24.7755 30.1544 25.2672 29.7727 25.765 29.3916C27.855 27.7783 29.9983 26.1266 31.77 24.1333C33.9183 21.7133 35.4166 18.89 35.4166 15.2283C35.4166 11.645 33.3916 8.63662 30.6266 7.37329C27.94 6.14495 24.33 6.46995 20.9 10.035C20.7834 10.1559 20.6436 10.2522 20.4889 10.3179C20.3343 10.3836 20.168 10.4175 20 10.4175C19.832 10.4175 19.6657 10.3836 19.511 10.3179C19.3564 10.2522 19.2166 10.1559 19.1 10.035C15.67 6.46995 12.06 6.14495 9.37331 7.37329ZM20 7.43329C16.1466 3.98329 11.8316 3.49995 8.33331 5.09829C4.64331 6.78995 2.08331 10.71 2.08331 15.23C2.08331 19.6716 3.93331 23.0616 6.36165 25.795C8.30498 27.9833 10.6833 29.8149 12.785 31.4316C13.2628 31.7983 13.7216 32.1549 14.1616 32.5016C15.0166 33.1749 15.9333 33.8916 16.8616 34.4349C17.79 34.9783 18.85 35.4183 20 35.4183C21.15 35.4183 22.21 34.9766 23.1383 34.4349C24.0683 33.8916 24.9833 33.1749 25.8383 32.5016C26.2783 32.1549 26.7372 31.7983 27.215 31.4316C29.315 29.8149 31.695 27.9816 33.6383 25.795C36.0666 23.0616 37.9166 19.6716 37.9166 15.23C37.9166 10.71 35.3583 6.78995 31.6666 5.10162C28.1683 3.50162 23.8533 3.98495 20 7.43329Z" fill="url(#paint0_linear_1_1306)"/>
<defs>
<linearGradient id="paint0_linear_1_1306" x1="27.5264" y1="-2.95298" x2="13.4728" y2="14.5922" gradientUnits="userSpaceOnUse">
<stop stop-color="#FF7681"/>
<stop offset="1" stop-color="#ED4B58"/>
</linearGradient>
</defs>
</svg>
