<svg width="36" height="36" viewBox="0 0 36 36" fill="none" xmlns="http://www.w3.org/2000/svg">
<rect width="36" height="36" rx="14" fill="#B2B8C0"/>
<path fill-rule="evenodd" clip-rule="evenodd" d="M28.6705 10.6295C28.948 11.345 29.1392 12.1653 29.1947 13.3618C29.2502 14.5584 29.2626 14.947 29.2626 18C29.2626 21.053 29.2502 21.4354 29.1947 22.6382C29.1392 23.8347 28.948 24.655 28.6705 25.3705C28.3868 26.1106 27.9982 26.7397 27.3752 27.3627C26.7523 27.9856 26.1232 28.368 25.3831 28.6579C24.6676 28.9354 23.8473 29.1266 22.6507 29.1822C21.4542 29.2377 21.0718 29.25 18.0126 29.25C14.9595 29.25 14.5771 29.2377 13.3744 29.1822C12.1779 29.1266 11.3576 28.9354 10.6421 28.6579C9.90196 28.3742 9.27285 27.9856 8.64991 27.3627C8.02696 26.7397 7.64456 26.1106 7.35468 25.3705C7.07713 24.655 6.88593 23.8347 6.83042 22.6382C6.77491 21.4416 6.76257 21.0592 6.76257 18C6.76257 14.947 6.77491 14.5646 6.83042 13.3618C6.88593 12.1653 7.07713 11.345 7.35468 10.6295C7.6384 9.88939 8.02696 9.26028 8.64991 8.63734C9.27285 8.01439 9.90196 7.63199 10.6421 7.34211C11.3576 7.06456 12.1779 6.87336 13.3744 6.81785C14.571 6.76234 14.9534 6.75 18.0126 6.75C21.0656 6.75 21.448 6.76234 22.6507 6.81785C23.8473 6.87336 24.6676 7.06456 25.3831 7.34211C26.1232 7.62582 26.7523 8.01439 27.3752 8.63734C27.9982 9.26028 28.3806 9.88939 28.6705 10.6295ZM26.7828 24.6353C26.937 24.2405 27.122 23.6423 27.1714 22.5444C27.1728 22.5117 27.1741 22.4795 27.1754 22.448C27.2217 21.3384 27.2392 20.9194 27.2392 17.9988C27.2392 14.9951 27.2269 14.6373 27.1714 13.4531C27.122 12.3553 26.937 11.757 26.7828 11.3623C26.5731 10.838 26.3326 10.4618 25.9378 10.067C25.5431 9.67229 25.1669 9.42558 24.6426 9.22204C24.2479 9.06785 23.6496 8.88281 22.5517 8.83347C21.3675 8.77796 21.0098 8.76562 18.0061 8.76562C15.0024 8.76562 14.6447 8.77796 13.4604 8.83347C12.3626 8.88281 11.7643 9.06785 11.3696 9.22204C10.8453 9.43174 10.4691 9.67229 10.0743 10.067C9.67961 10.4618 9.4329 10.838 9.22936 11.3623C9.07517 11.757 8.89014 12.3553 8.84079 13.4531C8.78528 14.6373 8.77295 14.9951 8.77295 17.9988C8.77295 21.0025 8.78528 21.3602 8.84079 22.5444C8.89014 23.6423 9.07517 24.2405 9.22936 24.6353C9.43907 25.1595 9.67961 25.5358 10.0743 25.9305C10.4691 26.3252 10.8453 26.572 11.3696 26.7755C11.7643 26.9297 12.3626 27.1147 13.4604 27.1641C14.6447 27.2196 15.0024 27.2319 18.0061 27.2319C21.0098 27.2319 21.3675 27.2196 22.5517 27.1641C23.6496 27.1147 24.2479 26.9297 24.6426 26.7755C25.1669 26.5658 25.5431 26.3252 25.9378 25.9305C26.3326 25.5358 26.5793 25.1595 26.7828 24.6353Z" fill="white"/>
<path fill-rule="evenodd" clip-rule="evenodd" d="M12.2273 17.9979C12.2273 14.8092 14.8116 12.2188 18.0065 12.2188C21.2014 12.2188 23.7857 14.803 23.7857 17.9979C23.7857 21.1867 21.1952 23.7771 18.0065 23.7771C14.8178 23.7771 12.2273 21.1928 12.2273 17.9979ZM14.2566 17.9993C14.2566 20.0716 15.9343 21.7493 18.0066 21.7493C20.079 21.7493 21.7566 20.0716 21.7566 17.9993C21.7566 15.9269 20.079 14.2493 18.0066 14.2493C15.9343 14.2493 14.2566 15.9269 14.2566 17.9993Z" fill="white"/>
<circle cx="24.0138" cy="11.9942" r="1.35068" fill="white"/>
<path fill-rule="evenodd" clip-rule="evenodd" d="M6.81785 22.6382C6.76234 21.4416 6.75 21.0592 6.75 18C6.75 14.9408 6.76234 14.5584 6.81785 13.3618C6.87336 12.1653 7.06456 11.345 7.34211 10.6295C7.62582 9.88939 8.01439 9.26028 8.63734 8.63734C9.26028 8.01439 9.88939 7.63199 10.6295 7.34211C11.345 7.06456 12.1653 6.87336 13.3618 6.81785C14.5584 6.76234 14.9408 6.75 18 6.75C21.053 6.75 21.4354 6.76234 22.6382 6.81785C23.8347 6.87336 24.655 7.06456 25.3705 7.34211C26.1106 7.62582 26.7397 8.01439 27.3627 8.63734C27.9856 9.26028 28.368 9.88939 28.6579 10.6295C28.9354 11.345 29.1266 12.1653 29.1822 13.3618C29.2377 14.5584 29.25 14.9408 29.25 18C29.25 21.053 29.2377 21.4354 29.1822 22.6382C29.1266 23.8347 28.9354 24.655 28.6579 25.3705C28.3742 26.1106 27.9856 26.7397 27.3627 27.3627C26.7397 27.9856 26.1106 28.368 25.3705 28.6579C24.655 28.9354 23.8347 29.1266 22.6382 29.1822C21.4416 29.2377 21.0592 29.25 18 29.25C14.947 29.25 14.5646 29.2377 13.3618 29.1822C12.1653 29.1266 11.345 28.9354 10.6295 28.6579C9.88939 28.3742 9.26028 27.9856 8.63734 27.3627C8.01439 26.7397 7.63199 26.1106 7.34211 25.3705C7.06456 24.655 6.87336 23.8347 6.81785 22.6382ZM8.84714 13.4531C8.79163 14.6373 8.7793 14.9951 8.7793 17.9988C8.7793 21.0025 8.79163 21.3602 8.84714 22.5444C8.89648 23.6423 9.08152 24.2405 9.23571 24.6353C9.44542 25.1595 9.68596 25.5358 10.0807 25.9305C10.4754 26.3252 10.8517 26.572 11.3759 26.7755C11.7707 26.9297 12.3689 27.1147 13.4668 27.1641C14.651 27.2196 15.0087 27.2319 18.0124 27.2319C21.0161 27.2319 21.3739 27.2196 22.5581 27.1641C23.6559 27.1147 24.2542 26.9297 24.649 26.7755C25.1732 26.5658 25.5494 26.3252 25.9442 25.9305C26.3389 25.5358 26.5856 25.1595 26.7892 24.6353C26.9434 24.2405 27.1284 23.6423 27.1777 22.5444C27.2332 21.3602 27.2456 21.0025 27.2456 17.9988C27.2456 14.9951 27.2332 14.6373 27.1777 13.4531C27.1284 12.3553 26.9434 11.757 26.7892 11.3623C26.5795 10.838 26.3389 10.4618 25.9442 10.067C25.5494 9.67229 25.1732 9.42558 24.649 9.22204C24.2542 9.06785 23.6559 8.88281 22.5581 8.83347C21.3739 8.77796 21.0161 8.76562 18.0124 8.76562C15.0087 8.76562 14.651 8.77796 13.4668 8.83347C12.3689 8.88281 11.7707 9.06785 11.3759 9.22204C10.8517 9.43174 10.4754 9.67229 10.0807 10.067C9.68596 10.4618 9.43925 10.838 9.23571 11.3623C9.08152 11.757 8.89648 12.3553 8.84714 13.4531Z" fill="white"/>
</svg>
