<svg width="40" height="40" viewBox="0 0 40 40" fill="none" xmlns="http://www.w3.org/2000/svg">
<rect width="40" height="40" rx="16" fill="url(#paint0_radial_1_1214)"/>
<path fill-rule="evenodd" clip-rule="evenodd" d="M31.8561 11.8106C32.1645 12.6055 32.3769 13.517 32.4386 14.8465C32.5003 16.176 32.514 16.6077 32.514 20C32.514 23.3923 32.5003 23.8172 32.4386 25.1535C32.3769 26.483 32.1645 27.3945 31.8561 28.1894C31.5409 29.0118 31.1091 29.7108 30.417 30.403C29.7248 31.0951 29.0258 31.52 28.2034 31.8421C27.4085 32.1505 26.497 32.3629 25.1675 32.4246C23.838 32.4863 23.4131 32.5 20.014 32.5C16.6217 32.5 16.1968 32.4863 14.8605 32.4246C13.531 32.3629 12.6195 32.1505 11.8246 31.8421C11.0022 31.5269 10.3032 31.0951 9.61105 30.403C8.91889 29.7108 8.494 29.0118 8.1719 28.1894C7.86351 27.3945 7.65107 26.483 7.58939 25.1535C7.52771 23.824 7.51401 23.3991 7.51401 20C7.51401 16.6077 7.52771 16.1828 7.58939 14.8465C7.65107 13.517 7.86351 12.6055 8.1719 11.8106C8.48714 10.9882 8.91889 10.2892 9.61105 9.59704C10.3032 8.90488 11.0022 8.47999 11.8246 8.15789C12.6195 7.84951 13.531 7.63706 14.8605 7.57538C16.19 7.51371 16.6149 7.5 20.014 7.5C23.4063 7.5 23.8312 7.51371 25.1675 7.57538C26.497 7.63706 27.4085 7.84951 28.2034 8.15789C29.0258 8.47314 29.7248 8.90488 30.417 9.59704C31.1091 10.2892 31.534 10.9882 31.8561 11.8106ZM29.7585 27.3712C29.9298 26.9326 30.1354 26.2679 30.1902 25.048L30.1947 24.9409C30.2462 23.708 30.2656 23.2425 30.2656 19.9973C30.2656 16.6599 30.2519 16.2624 30.1902 14.9466C30.1354 13.7268 29.9298 13.062 29.7585 12.6234C29.5255 12.0409 29.2582 11.6229 28.8196 11.1843C28.381 10.7457 27.963 10.4716 27.3805 10.2454C26.9419 10.0741 26.2771 9.86849 25.0573 9.81367C23.7415 9.75199 23.344 9.73828 20.0066 9.73828C16.6691 9.73828 16.2717 9.75199 14.9559 9.81367C13.736 9.86849 13.0713 10.0741 12.6327 10.2454C12.0502 10.4784 11.6321 10.7457 11.1935 11.1843C10.7549 11.6229 10.4808 12.0409 10.2547 12.6234C10.0833 13.062 9.87774 13.7268 9.82291 14.9466C9.76123 16.2624 9.74753 16.6599 9.74753 19.9973C9.74753 23.3348 9.76123 23.7323 9.82291 25.048C9.87774 26.2679 10.0833 26.9326 10.2547 27.3712C10.4877 27.9537 10.7549 28.3718 11.1935 28.8104C11.6321 29.249 12.0502 29.5231 12.6327 29.7493C13.0713 29.9206 13.736 30.1262 14.9559 30.181C16.2717 30.2427 16.6691 30.2564 20.0066 30.2564C23.344 30.2564 23.7415 30.2427 25.0573 30.181C26.2771 30.1262 26.9419 29.9206 27.3805 29.7493C27.963 29.5162 28.381 29.249 28.8196 28.8104C29.2582 28.3718 29.5323 27.9537 29.7585 27.3712Z" fill="white"/>
<path fill-rule="evenodd" clip-rule="evenodd" d="M13.5862 19.9955C13.5862 16.4525 16.4576 13.5742 20.0075 13.5742C23.5574 13.5742 26.4288 16.4457 26.4288 19.9955C26.4288 23.5386 23.5505 26.4169 20.0075 26.4169C16.4645 26.4169 13.5862 23.5454 13.5862 19.9955ZM15.841 19.9975C15.841 22.3001 17.7051 24.1642 20.0077 24.1642C22.3103 24.1642 24.1744 22.3001 24.1744 19.9975C24.1744 17.6949 22.3103 15.8308 20.0077 15.8308C17.7051 15.8308 15.841 17.6949 15.841 19.9975Z" fill="white"/>
<circle cx="26.6819" cy="13.3279" r="1.50075" fill="white"/>
<path fill-rule="evenodd" clip-rule="evenodd" d="M7.57538 25.1535C7.51371 23.824 7.5 23.3991 7.5 20C7.5 16.6009 7.51371 16.176 7.57538 14.8465C7.63706 13.517 7.84951 12.6055 8.15789 11.8106C8.47314 10.9882 8.90488 10.2892 9.59704 9.59704C10.2892 8.90488 10.9882 8.47999 11.8106 8.15789C12.6055 7.84951 13.517 7.63706 14.8465 7.57538C16.176 7.51371 16.6009 7.5 20 7.5C23.3923 7.5 23.8172 7.51371 25.1535 7.57538C26.483 7.63706 27.3945 7.84951 28.1894 8.15789C29.0118 8.47314 29.7108 8.90488 30.403 9.59704C31.0951 10.2892 31.52 10.9882 31.8421 11.8106C32.1505 12.6055 32.3629 13.517 32.4246 14.8465C32.4863 16.176 32.5 16.6009 32.5 20C32.5 23.3923 32.4863 23.8172 32.4246 25.1535C32.3629 26.483 32.1505 27.3945 31.8421 28.1894C31.5269 29.0118 31.0951 29.7108 30.403 30.403C29.7108 31.0951 29.0118 31.52 28.1894 31.8421C27.3945 32.1505 26.483 32.3629 25.1535 32.4246C23.824 32.4863 23.3991 32.5 20 32.5C16.6077 32.5 16.1828 32.4863 14.8465 32.4246C13.517 32.3629 12.6055 32.1505 11.8106 31.8421C10.9882 31.5269 10.2892 31.0951 9.59704 30.403C8.90488 29.7108 8.47999 29.0118 8.15789 28.1894C7.84951 27.3945 7.63706 26.483 7.57538 25.1535ZM9.83027 14.9466C9.76859 16.2624 9.75488 16.6599 9.75488 19.9973C9.75488 23.3348 9.76859 23.7323 9.83027 25.048C9.88509 26.2679 10.0907 26.9326 10.262 27.3712C10.495 27.9537 10.7623 28.3718 11.2009 28.8104C11.6395 29.249 12.0575 29.5231 12.64 29.7493C13.0786 29.9206 13.7434 30.1262 14.9632 30.181C16.279 30.2427 16.6765 30.2564 20.0139 30.2564C23.3514 30.2564 23.7489 30.2427 25.0646 30.181C26.2845 30.1262 26.9492 29.9206 27.3878 29.7493C27.9703 29.5162 28.3884 29.249 28.827 28.8104C29.2656 28.3718 29.5397 27.9537 29.7659 27.3712C29.9372 26.9326 30.1428 26.2679 30.1976 25.048C30.2593 23.7323 30.273 23.3348 30.273 19.9973C30.273 16.6599 30.2593 16.2624 30.1976 14.9466C30.1428 13.7268 29.9372 13.062 29.7659 12.6234C29.5328 12.0409 29.2656 11.6229 28.827 11.1843C28.3884 10.7457 27.9703 10.4716 27.3878 10.2454C26.9492 10.0741 26.2845 9.86849 25.0646 9.81367C23.7489 9.75199 23.3514 9.73828 20.0139 9.73828C16.6765 9.73828 16.279 9.75199 14.9632 9.81367C13.7434 9.86849 13.0786 10.0741 12.64 10.2454C12.0575 10.4784 11.6395 10.7457 11.2009 11.1843C10.7623 11.6229 10.4882 12.0409 10.262 12.6234C10.0907 13.062 9.88509 13.7268 9.83027 14.9466Z" fill="white"/>
<defs>
<radialGradient id="paint0_radial_1_1214" cx="0" cy="0" r="1" gradientUnits="userSpaceOnUse" gradientTransform="translate(10.625 43.0808) rotate(-90) scale(39.643 36.8711)">
<stop stop-color="#FFDD55"/>
<stop offset="0.1" stop-color="#FFDD55"/>
<stop offset="0.5" stop-color="#FF543E"/>
<stop offset="1" stop-color="#C837AB"/>
</radialGradient>
</defs>
</svg>
