<svg width="25" height="25" viewBox="0 0 25 25" fill="none" xmlns="http://www.w3.org/2000/svg">
<path fill-rule="evenodd" clip-rule="evenodd" d="M12.5463 5.97774C9.36475 5.8109 6.88201 8.01852 6.33453 11.4738C5.88115 14.3352 6.68498 17.8219 7.37255 17.9974C7.66417 18.0718 8.36595 17.5351 8.87653 17.0536C8.97252 16.9631 9.11766 16.9479 9.23023 17.0167C10.0261 17.5034 10.9273 17.8691 11.9207 17.9212C15.1869 18.0925 18.0813 15.5362 18.2524 12.2698C18.4235 9.00331 15.8124 6.14901 12.5463 5.97774ZM7.21859 22.5661C7.09541 22.4789 6.92569 22.5026 6.82246 22.6127C5.44263 24.0843 1.91129 25.1167 1.74953 23.108C1.74953 21.5343 1.39605 20.2081 1.00687 18.7479C0.530214 16.9596 0 14.9704 0 12.0792C0 5.18487 5.65422 0 12.3582 0C19.0622 0 24.3184 5.43801 24.3184 12.1461C24.3184 18.8543 18.8949 24.1584 12.4216 24.1584C10.1251 24.1584 9.01065 23.8349 7.21859 22.5661Z" fill="#ED4B58"/>
</svg>
