<svg width="28" height="28" viewBox="0 0 28 28" fill="none" xmlns="http://www.w3.org/2000/svg">
<rect width="28" height="28" rx="12" fill="#06C795"/>
<path d="M20.9702 17.8474C20.9306 17.7281 20.6787 17.5523 20.2146 17.3205C20.0888 17.2475 19.9097 17.1482 19.6779 17.0222C19.4458 16.8962 19.2352 16.7802 19.0464 16.6741C18.8572 16.568 18.68 16.4653 18.5144 16.366C18.4879 16.3461 18.4051 16.2882 18.2659 16.1919C18.1265 16.0958 18.009 16.0246 17.9127 15.9781C17.8166 15.9318 17.7221 15.9086 17.6293 15.9086C17.4967 15.9086 17.3311 16.0031 17.1323 16.1919C16.9335 16.3809 16.7512 16.5863 16.5855 16.8085C16.4199 17.0307 16.2441 17.236 16.0587 17.4249C15.873 17.6139 15.7204 17.7084 15.6013 17.7084C15.5414 17.7084 15.4668 17.6917 15.3774 17.6588C15.288 17.6256 15.2201 17.5973 15.1734 17.5744C15.1271 17.551 15.0478 17.5048 14.935 17.4349C14.822 17.3653 14.7592 17.3272 14.7459 17.3205C13.8378 16.8166 13.0589 16.2399 12.4092 15.5905C11.7597 14.9407 11.1829 14.162 10.6791 13.2538C10.6725 13.2405 10.6343 13.1775 10.5647 13.0649C10.4951 12.9522 10.4486 12.8727 10.4254 12.8262C10.4023 12.7799 10.3741 12.7119 10.341 12.6224C10.3079 12.5329 10.2913 12.4584 10.2913 12.3987C10.2913 12.2794 10.3858 12.1269 10.5747 11.9413C10.7636 11.7558 10.9692 11.58 11.1912 11.4144C11.4133 11.2488 11.6187 11.0665 11.8077 10.8677C11.9966 10.6688 12.091 10.5032 12.091 10.3706C12.091 10.2779 12.0678 10.1833 12.0215 10.0873C11.9751 9.99096 11.9038 9.87346 11.8077 9.73419C11.7115 9.59499 11.6535 9.51221 11.6336 9.48556C11.5342 9.31997 11.4316 9.14267 11.3254 8.95374C11.2192 8.76484 11.1033 8.55428 10.9773 8.32231C10.8514 8.09044 10.752 7.9114 10.679 7.78546C10.4471 7.32155 10.2715 7.06955 10.1522 7.02992C10.1057 7.01003 10.0361 7 9.94336 7C9.76427 7 9.53065 7.03308 9.2423 7.09946C8.95386 7.16574 8.72688 7.23525 8.56114 7.30828C8.22968 7.44741 7.87837 7.85174 7.5071 8.52113C7.16902 9.14409 7 9.76069 7 10.3705C7 10.5493 7.0116 10.7233 7.03479 10.8925C7.05799 11.0615 7.09943 11.2521 7.15916 11.4642C7.21879 11.6763 7.26689 11.8339 7.30325 11.9365C7.33964 12.0391 7.40759 12.2231 7.50706 12.4883C7.60639 12.7535 7.66612 12.9158 7.68601 12.9754C7.918 13.6251 8.19311 14.205 8.51126 14.7155C9.03473 15.5639 9.74909 16.4407 10.6539 17.3456C11.5588 18.2504 12.4355 18.9646 13.284 19.4883C13.7944 19.8064 14.3746 20.0814 15.0242 20.3136C15.0839 20.3334 15.2463 20.3929 15.5113 20.4926C15.7765 20.592 15.9605 20.66 16.0632 20.6964C16.1659 20.7329 16.3235 20.781 16.5354 20.8408C16.7478 20.9005 16.9382 20.9419 17.1073 20.9653C17.2764 20.9882 17.4504 21 17.6293 21C18.2391 21 18.8557 20.8309 19.4788 20.4929C20.1482 20.1218 20.5525 19.7704 20.6917 19.4387C20.7649 19.2732 20.8342 19.0461 20.9005 18.7577C20.967 18.4694 21 18.2358 21 18.0568C21.0002 17.9637 20.9902 17.8942 20.9702 17.8474Z" fill="white"/>
</svg>
