<svg width="36" height="36" viewBox="0 0 36 36" fill="none" xmlns="http://www.w3.org/2000/svg">
<rect width="36" height="36" rx="15" fill="#6FCF97"/>
<path d="M26.9617 22.9467C26.9108 22.7933 26.5869 22.5673 25.9901 22.2693C25.8285 22.1753 25.5981 22.0477 25.3001 21.8857C25.0018 21.7237 24.731 21.5745 24.4883 21.4381C24.245 21.3018 24.0171 21.1697 23.8042 21.042C23.7702 21.0165 23.6636 20.942 23.4847 20.8181C23.3055 20.6947 23.1544 20.603 23.0306 20.5432C22.9071 20.4838 22.7855 20.4539 22.6662 20.4539C22.4958 20.4539 22.2829 20.5754 22.0273 20.8181C21.7717 21.0612 21.5372 21.3252 21.3243 21.611C21.1112 21.8966 20.8853 22.1606 20.6469 22.4035C20.4082 22.6465 20.212 22.7679 20.0588 22.7679C19.9818 22.7679 19.8859 22.7464 19.771 22.7041C19.6561 22.6615 19.5687 22.625 19.5086 22.5956C19.4492 22.5656 19.3471 22.5061 19.2021 22.4163C19.0569 22.3268 18.9761 22.2778 18.9591 22.2693C17.7915 21.6214 16.7901 20.8799 15.9547 20.045C15.1196 19.2095 14.378 18.2083 13.7303 17.0406C13.7218 17.0235 13.6726 16.9425 13.5832 16.7977C13.4937 16.6528 13.434 16.5507 13.4041 16.4908C13.3743 16.4312 13.3381 16.3438 13.2956 16.2288C13.253 16.1138 13.2317 16.018 13.2317 15.9412C13.2317 15.7879 13.3531 15.5917 13.5961 15.3531C13.839 15.1146 14.1032 14.8886 14.3887 14.6757C14.6743 14.4628 14.9383 14.2283 15.1813 13.9728C15.4242 13.717 15.5456 13.5041 15.5456 13.3337C15.5456 13.2144 15.5158 13.0929 15.4562 12.9693C15.3965 12.8455 15.3049 12.6944 15.1813 12.5154C15.0576 12.3364 14.9831 12.23 14.9574 12.1957C14.8297 11.9828 14.6978 11.7549 14.5612 11.5119C14.4247 11.2691 14.2757 10.9984 14.1137 10.7001C13.9518 10.402 13.824 10.1718 13.7302 10.0099C13.432 9.41342 13.2062 9.08942 13.0528 9.03846C12.9931 9.0129 12.9035 9 12.7843 9C12.5541 9 12.2537 9.04254 11.883 9.12788C11.5121 9.21309 11.2203 9.30246 11.0072 9.39636C10.581 9.57524 10.1293 10.0951 9.65198 10.9557C9.21731 11.7567 9 12.5495 9 13.3334C9 13.5634 9.01491 13.7871 9.04473 14.0046C9.07456 14.2219 9.12784 14.467 9.20464 14.7397C9.2813 15.0124 9.34314 15.215 9.38989 15.3469C9.43668 15.4789 9.52405 15.7154 9.65194 16.0564C9.77965 16.3973 9.85644 16.606 9.88201 16.6827C10.1803 17.518 10.534 18.2636 10.9431 18.9199C11.6161 20.0107 12.5345 21.1381 13.6979 22.3015C14.8613 23.4647 15.9885 24.3831 17.0795 25.0564C17.7357 25.4653 18.4817 25.819 19.3169 26.1175C19.3936 26.1429 19.6023 26.2195 19.9431 26.3477C20.2841 26.4754 20.5207 26.5628 20.6527 26.6097C20.7847 26.6566 20.9873 26.7185 21.2598 26.7953C21.5329 26.8721 21.7777 26.9254 21.995 26.9554C22.2125 26.9848 22.4363 27 22.6662 27C23.4502 27 24.2431 26.7826 25.0442 26.348C25.9048 25.8708 26.4246 25.4191 26.6036 24.9926C26.6977 24.7798 26.7868 24.4879 26.8721 24.117C26.9575 23.7464 27 23.4461 27 23.2159C27.0003 23.0962 26.9874 23.0069 26.9617 22.9467Z" fill="white"/>
</svg>
