<svg width="24" height="16" viewBox="0 0 24 16" fill="none" xmlns="http://www.w3.org/2000/svg">
<path fill-rule="evenodd" clip-rule="evenodd" d="M7.939 1.35922C7.03812 0.45307 5.94018 0 4.64516 0C3.35014 0 2.2522 0.414235 1.35132 1.24272C0.450435 2.0712 0 3.0809 0 4.27184C0 5.46279 0.380055 6.40776 1.14018 7.1068C1.9003 7.80583 2.92785 8.15534 4.22287 8.15534C4.56071 8.15534 4.95484 8.10356 5.40528 8C5.6305 7.94822 5.79941 7.87055 5.91202 7.76699L6.08094 8.07767C6.13724 8.18123 6.19355 8.29773 6.24985 8.42718C6.30616 8.55663 6.33431 8.72492 6.33431 8.93204C6.33431 9.91586 6.06686 10.7702 5.53196 11.4951C4.99706 12.2201 4.41994 12.8155 3.80059 13.2816C3.06862 13.8511 2.22405 14.343 1.26686 14.7573L2.11144 16C3.46276 15.534 4.64516 14.835 5.65865 13.9029C6.55954 13.0744 7.39003 11.9612 8.15015 10.5631C8.91027 9.16504 9.29032 7.32687 9.29032 5.04854C9.29032 3.49514 8.83989 2.26538 7.939 1.35922ZM22.6499 1.35922C21.7491 0.45307 20.6511 0 19.3561 0C18.0611 0 16.9631 0.414235 16.0623 1.24272C15.1614 2.0712 14.7109 3.0809 14.7109 4.27184C14.7109 5.46279 15.091 6.40776 15.8511 7.1068C16.6112 7.80583 17.6388 8.15534 18.9338 8.15534C19.2716 8.15534 19.6658 8.10356 20.1162 8C20.3414 7.94822 20.5104 7.87055 20.623 7.76699L20.7919 8.07767C20.8482 8.18123 20.9045 8.29773 20.9608 8.42718C21.0171 8.55663 21.0452 8.72492 21.0452 8.93204C21.0452 9.91586 20.7778 10.7702 20.2429 11.4951C19.708 12.2201 19.1309 12.8155 18.5115 13.2816C17.7796 13.8511 16.935 14.343 15.9778 14.7573L16.8224 16C18.1737 15.534 19.3561 14.835 20.3696 13.9029C21.2705 13.0744 22.101 11.9612 22.8611 10.5631C23.6212 9.16504 24.0013 7.32687 24.0013 5.04854C24.0013 3.49514 23.5508 2.26538 22.6499 1.35922Z" fill="#C6C1CE"/>
</svg>
