<svg width="40" height="40" viewBox="0 0 40 40" fill="none" xmlns="http://www.w3.org/2000/svg">
<path d="M15 25L25 15" stroke="#ED4B58" stroke-width="2.5" stroke-linecap="round"/>
<path d="M24.1666 23.4998C24.3434 23.4998 24.5133 23.57 24.6383 23.6951C24.7633 23.8201 24.8336 23.9899 24.8336 24.1667C24.8336 24.3436 24.7633 24.5134 24.6383 24.6384C24.5133 24.7635 24.3434 24.8337 24.1666 24.8337C23.9898 24.8337 23.82 24.7635 23.6949 24.6384C23.5699 24.5134 23.4996 24.3436 23.4996 24.1667C23.4996 23.9899 23.5699 23.8201 23.6949 23.6951C23.82 23.57 23.9898 23.4998 24.1666 23.4998ZM15.8336 15.1667C16.0102 15.1668 16.1794 15.2372 16.3043 15.3621C16.4293 15.4871 16.4996 15.6569 16.4996 15.8337C16.4995 16.0104 16.4293 16.1795 16.3043 16.3044C16.1794 16.4294 16.0103 16.4997 15.8336 16.4998C15.6568 16.4998 15.487 16.4295 15.3619 16.3044C15.2371 16.1795 15.1667 16.0104 15.1666 15.8337C15.1666 15.6569 15.2369 15.4871 15.3619 15.3621C15.487 15.237 15.6568 15.1667 15.8336 15.1667Z" fill="#ED4B58" stroke="#ED4B58" stroke-width="2"/>
<path d="M3.33331 20C3.33331 12.1434 3.33331 8.21504 5.77331 5.77337C8.21665 3.33337 12.1433 3.33337 20 3.33337C27.8566 3.33337 31.785 3.33337 34.225 5.77337C36.6666 8.21671 36.6666 12.1434 36.6666 20C36.6666 27.8567 36.6666 31.785 34.225 34.225C31.7866 36.6667 27.8566 36.6667 20 36.6667C12.1433 36.6667 8.21498 36.6667 5.77331 34.225C3.33331 31.7867 3.33331 27.8567 3.33331 20Z" stroke="#ED4B58" stroke-width="2.5"/>
</svg>
