<svg width="40" height="40" viewBox="0 0 40 40" fill="none" xmlns="http://www.w3.org/2000/svg">
<path d="M27.4166 18.2498L21.75 13.9998C21.2451 13.6212 20.6311 13.4165 20 13.4165C19.3689 13.4165 18.7548 13.6212 18.25 13.9998L12.5833 18.2498C12.452 18.3483 12.3414 18.4717 12.2577 18.613C12.1741 18.7542 12.1191 18.9106 12.0959 19.0731C12.0727 19.2356 12.0817 19.401 12.1224 19.5601C12.1632 19.7191 12.2348 19.8685 12.3333 19.9998C12.4318 20.1312 12.5552 20.2418 12.6964 20.3254C12.8377 20.4091 12.994 20.4641 13.1565 20.4873C13.319 20.5105 13.4845 20.5015 13.6435 20.4607C13.8026 20.42 13.952 20.3483 14.0833 20.2498L19.75 15.9998C19.8221 15.9457 19.9098 15.9165 20 15.9165C20.0901 15.9165 20.1779 15.9457 20.25 15.9998L25.9166 20.2498C26.048 20.3483 26.1974 20.42 26.3564 20.4607C26.5154 20.5015 26.6809 20.5105 26.8434 20.4873C27.0059 20.4641 27.1623 20.4091 27.3035 20.3254C27.4448 20.2418 27.5682 20.1312 27.6666 19.9998C27.7651 19.8685 27.8368 19.7191 27.8775 19.5601C27.9183 19.401 27.9273 19.2356 27.9041 19.0731C27.8809 18.9106 27.8259 18.7542 27.7422 18.613C27.6586 18.4717 27.548 18.3483 27.4166 18.2498Z" fill="url(#paint0_linear_1_1335)"/>
<path d="M24.0834 22.4165L20.75 19.9165C20.5337 19.7542 20.2705 19.6665 20 19.6665C19.7296 19.6665 19.4664 19.7542 19.25 19.9165L15.9167 22.4165C15.6515 22.6154 15.4761 22.9115 15.4293 23.2397C15.3824 23.5679 15.4678 23.9013 15.6667 24.1665C15.8656 24.4317 16.1617 24.6071 16.4899 24.6539C16.8181 24.7008 17.1515 24.6154 17.4167 24.4165L20 22.4798L22.5834 24.4165C22.8486 24.6154 23.1819 24.7008 23.5101 24.6539C23.8383 24.6071 24.1344 24.4317 24.3334 24.1665C24.5323 23.9013 24.6177 23.5679 24.5708 23.2397C24.5239 22.9115 24.3486 22.6154 24.0834 22.4165Z" fill="url(#paint1_linear_1_1335)"/>
<path fill-rule="evenodd" clip-rule="evenodd" d="M20 2.0835C18.4383 2.0835 16.945 2.59516 14.5383 3.4185L13.3267 3.83516C10.8583 4.6785 8.95167 5.33183 7.58833 5.88516C6.90167 6.1635 6.31 6.43516 5.835 6.71016C5.37667 6.97683 4.91833 7.3085 4.60667 7.7535C4.29833 8.19183 4.13833 8.73183 4.03833 9.25349C3.93333 9.79349 3.87167 10.4418 3.83 11.1868C3.75 12.6635 3.75 14.6902 3.75 17.3168V19.9852C3.75 30.1535 11.43 35.0285 15.9967 37.0252L16.0417 37.0435C16.6083 37.2918 17.1417 37.5235 17.7533 37.6802C18.3983 37.8468 19.085 37.9168 20 37.9168C20.9167 37.9168 21.6 37.8468 22.2467 37.6802C22.8583 37.5235 23.3917 37.2918 23.9567 37.0435L24.0033 37.0252C28.57 35.0285 36.25 30.1535 36.25 19.9852V17.3168C36.25 14.6902 36.25 12.6635 36.17 11.1852C36.1424 10.5369 36.0729 9.89109 35.9617 9.25183C35.8617 8.73183 35.7017 8.19183 35.395 7.75183C35.0817 7.3085 34.6233 6.97683 34.165 6.71016C33.5989 6.39766 33.0133 6.12209 32.4117 5.88516C31.0483 5.33183 29.1417 4.6785 26.6733 3.83516L25.4617 3.4185C23.055 2.59516 21.5617 2.0835 20 2.0835ZM15.1333 5.85683C17.825 4.93683 18.9033 4.5835 20 4.5835C21.0967 4.5835 22.175 4.93683 24.8667 5.85683L25.82 6.1835C28.3417 7.04683 30.18 7.67683 31.47 8.20016C32.115 8.4635 32.5817 8.68349 32.91 8.87349C33.07 8.96683 33.1856 9.04405 33.2567 9.10516C33.32 9.15516 33.345 9.18516 33.3483 9.1885C33.3702 9.22771 33.3881 9.26903 33.4017 9.31183C33.435 9.40294 33.47 9.54072 33.5067 9.72516C33.5988 10.2529 33.6545 10.7864 33.6733 11.3218C33.75 12.7235 33.75 14.6802 33.75 17.3618V19.9852C33.75 28.6118 27.3 32.8568 23.0017 34.7335C22.3833 35.0035 22.025 35.1568 21.6267 35.2585C21.2467 35.3568 20.7833 35.4168 20 35.4168C19.2167 35.4168 18.7533 35.3568 18.3733 35.2585C17.9733 35.1585 17.6167 35.0035 16.9983 34.7335C12.6983 32.8568 6.25 28.6102 6.25 19.9852V17.3618C6.25 14.6802 6.25 12.7235 6.32667 11.3218C6.3455 10.7864 6.40118 10.2529 6.49333 9.72516C6.52889 9.54072 6.56389 9.40294 6.59833 9.31183C6.62833 9.22849 6.64833 9.19516 6.65167 9.1885C6.67957 9.15793 6.71026 9.13003 6.74333 9.10516C6.81444 9.04405 6.93 8.96627 7.09 8.87183C7.41833 8.68183 7.885 8.4635 8.53 8.20183C9.82 7.67683 11.6583 7.04683 14.18 6.18516L15.1333 5.85683Z" fill="url(#paint2_linear_1_1335)"/>
<defs>
<linearGradient id="paint0_linear_1_1335" x1="23.3256" y1="11.7872" x2="21.0237" y2="17.3796" gradientUnits="userSpaceOnUse">
<stop stop-color="#FF7681"/>
<stop offset="1" stop-color="#ED4B58"/>
</linearGradient>
<linearGradient id="paint1_linear_1_1335" x1="21.9254" y1="18.5164" x2="20.0747" y2="22.204" gradientUnits="userSpaceOnUse">
<stop stop-color="#FF7681"/>
<stop offset="1" stop-color="#ED4B58"/>
</linearGradient>
<linearGradient id="paint2_linear_1_1335" x1="26.8263" y1="-6.1589" x2="10.286" y2="10.1458" gradientUnits="userSpaceOnUse">
<stop stop-color="#FF7681"/>
<stop offset="1" stop-color="#ED4B58"/>
</linearGradient>
</defs>
</svg>
