<svg width="19" height="16" viewBox="0 0 19 16" fill="none" xmlns="http://www.w3.org/2000/svg">
<path d="M17.773 0.0624597L0.403433 6.83119C-0.15917 7.05046 -0.125086 7.8578 0.454045 8.02878L4.86784 9.33216L6.51507 14.559C6.68713 15.105 7.379 15.2705 7.77951 14.8615L10.0616 12.5314L14.5391 15.8181C15.0871 16.2203 15.8675 15.9215 16.0066 15.2562L18.9721 1.07795C19.1173 0.383459 18.4341 -0.19516 17.773 0.0624597ZM15.5953 3.20896L7.52725 10.3435C7.44683 10.4147 7.39565 10.5131 7.38368 10.6198L7.07305 13.3811C7.06291 13.4712 6.93689 13.4831 6.90999 13.3966L5.63198 9.27847C5.57344 9.08993 5.64976 8.88566 5.8175 8.78164L15.345 2.87257C15.5641 2.73658 15.7885 3.0382 15.5953 3.20896Z" fill="#26364B"/>
</svg>
