<svg width="36" height="36" viewBox="0 0 36 36" fill="none" xmlns="http://www.w3.org/2000/svg">
<rect width="36" height="36" rx="14" fill="#61A8DE"/>
<path d="M25.6196 9.07027L6.07886 16.6851C5.44593 16.9318 5.48428 17.84 6.1358 18.0324L11.1013 19.4987L12.9544 25.3789C13.148 25.9931 13.9264 26.1793 14.377 25.7192L16.9443 23.0979L21.9815 26.7953C22.598 27.2478 23.4759 26.9117 23.6324 26.1632L26.9686 10.2127C27.132 9.43139 26.3634 8.78044 25.6196 9.07027ZM23.1697 12.6101L14.0932 20.6365C14.0027 20.7165 13.9451 20.8272 13.9316 20.9473L13.5822 24.0538C13.5708 24.1551 13.429 24.1685 13.3987 24.0711L11.961 19.4383C11.8951 19.2262 11.981 18.9964 12.1697 18.8793L22.8882 12.2316C23.1347 12.0786 23.387 12.418 23.1697 12.6101Z" fill="white"/>
</svg>
