<svg width="40" height="40" viewBox="0 0 40 40" fill="none" xmlns="http://www.w3.org/2000/svg">
<rect width="40" height="40" rx="16" fill="#222222"/>
<path fill-rule="evenodd" clip-rule="evenodd" d="M20.4926 9.08074C21.6866 9.0625 22.8714 9.07161 24.0562 9.0625C24.1292 10.457 24.6304 11.8789 25.6512 12.8632C26.672 13.8749 28.112 14.3398 29.5156 14.4947V18.1679C28.2032 18.1223 26.8816 17.8488 25.6877 17.2838C25.1681 17.0468 24.6851 16.746 24.2112 16.4361C24.2021 19.0975 24.2203 21.759 24.1929 24.4113C24.12 25.6873 23.7008 26.9542 22.9625 28.0024C21.7686 29.7524 19.6997 30.8916 17.576 30.9281C16.2727 31.001 14.9694 30.6455 13.8574 29.9893C12.0164 28.9047 10.7222 26.9177 10.5308 24.785C10.5125 24.3292 10.5034 23.8735 10.5216 23.4269C10.6857 21.6951 11.5424 20.0363 12.8731 18.9061C14.3861 17.5936 16.5005 16.9647 18.4783 17.3384C18.4966 18.6874 18.4419 20.0363 18.4419 21.3853C17.5396 21.0936 16.4823 21.1756 15.6894 21.7225C15.1152 22.0962 14.6777 22.6704 14.4499 23.3175C14.2585 23.7824 14.3132 24.2928 14.3223 24.785C14.541 26.2797 15.981 27.5375 17.5122 27.4008C18.533 27.3917 19.5082 26.7992 20.0369 25.9334C20.21 25.6326 20.4014 25.3227 20.4105 24.9672C20.5017 23.3357 20.4652 21.7134 20.4744 20.0819C20.4835 16.4088 20.4652 12.7447 20.4926 9.08074Z" fill="white"/>
</svg>
