<svg width="36" height="36" viewBox="0 0 36 36" fill="none" xmlns="http://www.w3.org/2000/svg">
<rect width="36" height="36" rx="14" fill="#B2B8C0"/>
<path fill-rule="evenodd" clip-rule="evenodd" d="M18.4432 8.17071C19.5178 8.1543 20.5842 8.16249 21.6505 8.1543C21.7161 9.40937 22.1673 10.689 23.086 11.575C24.0047 12.4855 25.3007 12.9039 26.564 13.0433V16.3491C25.3828 16.3081 24.1933 16.062 23.1188 15.5534C22.6512 15.3401 22.2165 15.0694 21.7899 14.7905C21.7817 17.1858 21.7982 19.5811 21.7736 21.9682C21.7079 23.1166 21.3306 24.2569 20.6662 25.2002C19.5916 26.7752 17.7296 27.8005 15.8183 27.8334C14.6453 27.899 13.4723 27.579 12.4716 26.9884C10.8147 26.0123 9.64984 24.224 9.4776 22.3045C9.46119 21.8944 9.45299 21.4842 9.46938 21.0823C9.61704 19.5237 10.3881 18.0307 11.5857 17.0135C12.9474 15.8323 14.8504 15.2663 16.6304 15.6026C16.6468 16.8167 16.5976 18.0307 16.5976 19.2448C15.7855 18.9823 14.834 19.0561 14.1204 19.5483C13.6036 19.8846 13.2099 20.4014 13.0048 20.9838C12.8325 21.4022 12.8817 21.8615 12.8899 22.3045C13.0868 23.6498 14.3828 24.7818 15.7609 24.6588C16.6796 24.6506 17.5573 24.1174 18.0331 23.3381C18.1889 23.0674 18.3612 22.7885 18.3694 22.4686C18.4514 21.0002 18.4186 19.5401 18.4268 18.0718C18.435 14.7659 18.4186 11.4683 18.4432 8.17071Z" fill="white"/>
</svg>
