<svg width="40" height="40" viewBox="0 0 40 40" fill="none" xmlns="http://www.w3.org/2000/svg">
<rect width="40" height="40" rx="16" fill="#6C96C2"/>
<path fill-rule="evenodd" clip-rule="evenodd" d="M19.0988 28.6691H20.6685C20.6685 28.6691 21.1427 28.617 21.3848 28.3561C21.6076 28.1165 21.6004 27.6666 21.6004 27.6666C21.6004 27.6666 21.5698 25.5602 22.5474 25.2501C23.511 24.9445 24.7485 27.2858 26.0601 28.186C27.052 28.8673 27.8057 28.7179 27.8057 28.7179L31.3127 28.6691C31.3127 28.6691 33.1474 28.5561 32.2775 27.1136C32.2062 26.9956 31.7709 26.0465 29.6699 24.0964C27.4709 22.0553 27.7654 22.3854 30.4143 18.8548C32.0276 16.7047 32.6725 15.392 32.4711 14.8297C32.2789 14.2942 31.0924 14.4358 31.0924 14.4358L27.1436 14.4604C27.1436 14.4604 26.8509 14.4205 26.6338 14.5502C26.4217 14.6775 26.2851 14.9741 26.2851 14.9741C26.2851 14.9741 25.6601 16.638 24.8266 18.053C23.0682 21.0389 22.3652 21.1964 22.0778 21.0111C21.4094 20.579 21.5762 19.2752 21.5762 18.3489C21.5762 15.4554 22.0151 14.249 20.7216 13.9367C20.2924 13.8329 19.9765 13.7645 18.8788 13.7534C17.4698 13.7388 16.2773 13.7577 15.602 14.0885C15.1528 14.3085 14.8063 14.7987 15.0173 14.8269C15.2783 14.8618 15.8694 14.9862 16.1828 15.413C16.5874 15.9635 16.5732 17.1999 16.5732 17.1999C16.5732 17.1999 16.8056 20.6061 16.0302 21.0292C15.4979 21.3194 14.7678 20.7269 13.2001 18.0181C12.3969 16.6305 11.7905 15.0968 11.7905 15.0968C11.7905 15.0968 11.6735 14.8101 11.465 14.6568C11.2118 14.4711 10.8582 14.4119 10.8582 14.4119L7.10581 14.4365C7.10581 14.4365 6.54251 14.4522 6.33573 14.6971C6.15177 14.9149 6.32111 15.3656 6.32111 15.3656C6.32111 15.3656 9.25883 22.2386 12.5852 25.7021C15.6352 28.8776 19.0988 28.6691 19.0988 28.6691Z" fill="white"/>
</svg>
