<svg width="36" height="36" viewBox="0 0 36 36" fill="none" xmlns="http://www.w3.org/2000/svg">
<rect width="36" height="36" rx="14" fill="#B2B8C0"/>
<path fill-rule="evenodd" clip-rule="evenodd" d="M17.1889 25.8022H18.6017C18.6017 25.8022 19.0284 25.7553 19.2463 25.5205C19.4468 25.3048 19.4404 24.8999 19.4404 24.8999C19.4404 24.8999 19.4128 23.0042 20.2926 22.7251C21.1599 22.4501 22.2737 24.5572 23.4541 25.3674C24.3468 25.9806 25.0251 25.8461 25.0251 25.8461L28.1815 25.8022C28.1815 25.8022 29.8326 25.7005 29.0497 24.4022C28.9856 24.296 28.5938 23.4419 26.7029 21.6867C24.7238 19.8498 24.9888 20.1469 27.3729 16.9693C28.8248 15.0342 29.4053 13.8528 29.224 13.3468C29.051 12.8648 27.9832 12.9922 27.9832 12.9922L24.4292 13.0143C24.4292 13.0143 24.1658 12.9784 23.9704 13.0952C23.7795 13.2098 23.6566 13.4767 23.6566 13.4767C23.6566 13.4767 23.0941 14.9742 22.3439 16.2477C20.7614 18.935 20.1287 19.0768 19.87 18.91C19.2684 18.5211 19.4186 17.3477 19.4186 16.514C19.4186 13.9099 19.8136 12.8241 18.6495 12.543C18.2631 12.4496 17.9789 12.388 16.9909 12.3781C15.7228 12.3649 14.6495 12.3819 14.0418 12.6797C13.6375 12.8777 13.3256 13.3188 13.5156 13.3442C13.7505 13.3756 14.2825 13.4876 14.5645 13.8717C14.9287 14.3671 14.9159 15.4799 14.9159 15.4799C14.9159 15.4799 15.1251 18.5454 14.4272 18.9263C13.9481 19.1875 13.291 18.6542 11.8801 16.2163C11.1572 14.9675 10.6114 13.5871 10.6114 13.5871C10.6114 13.5871 10.5062 13.3291 10.3185 13.1911C10.0907 13.024 9.77236 12.9707 9.77236 12.9707L6.39523 12.9928C6.39523 12.9928 5.88826 13.007 5.70216 13.2274C5.53659 13.4234 5.689 13.829 5.689 13.829C5.689 13.829 8.33295 20.0147 11.3266 23.1319C14.0717 25.9899 17.1889 25.8022 17.1889 25.8022Z" fill="white"/>
</svg>
