<svg width="56" height="17" viewBox="0 0 56 17" fill="none" xmlns="http://www.w3.org/2000/svg">
<g clip-path="url(#clip0_1_1838)">
<path d="M53.3903 14.1077C54.4889 14.1077 55.2671 13.909 55.847 13.4811V11.54C55.2519 11.9527 54.5347 12.2125 53.5276 12.2125C51.8339 12.2125 51.132 10.898 51.132 8.81939C51.132 6.63374 51.9865 5.518 53.5429 5.518C54.4584 5.518 55.3587 5.83896 55.8317 6.14465V4.12713C55.3282 3.85202 54.4584 3.65332 53.2682 3.65332C50.2317 3.65332 48.6601 5.83896 48.6601 8.89581C48.6753 12.2431 50.2165 14.1077 53.3903 14.1077ZM38.5434 13.2212V11.2801C37.811 11.7845 36.5598 12.2278 35.4154 12.2278C33.6759 12.2278 33.0197 11.4024 32.9129 9.72116H38.6503V8.46785C38.6503 4.96776 37.1091 3.65332 34.744 3.65332C31.8448 3.65332 30.4715 5.86953 30.4715 8.91109C30.4715 12.4112 32.1958 14.1077 35.217 14.1077C36.7276 14.1077 37.8415 13.6951 38.5434 13.2212ZM16.7691 3.83673V7.81063H13.5952V3.83673H11.2148V13.909H13.5952V9.70587H16.7691V13.909H19.1494V3.83673H16.7691ZM29.8764 12.0138H28.8236V3.83673H21.896V4.69265C21.896 7.15341 21.7435 10.3325 20.9042 12.0138H20.1413V16.2017H22.3385V13.909H27.6639V16.2017H29.8612V12.0138H29.8764ZM46.1271 13.909H48.8279L45.0132 8.48313L48.3701 3.83673H45.9745L42.6176 8.48313V3.83673H40.2372V13.909H42.6176V8.95694L46.1271 13.909ZM34.683 5.518C35.8579 5.518 36.2241 6.49619 36.2241 7.76478V7.96347H32.9129C32.974 6.35863 33.5538 5.518 34.683 5.518ZM26.4432 12.0138H23.0862C23.7424 10.5007 23.9255 7.74949 23.9255 6.00709V5.70141H26.4432V12.0138Z" fill="black"/>
<path d="M9.23161 13.9086H6.80545V1.87996H5.72207C3.73842 1.87996 2.70082 2.87343 2.70082 4.356C2.70082 6.03726 3.41798 6.81676 4.89809 7.81023L6.1188 8.63558L2.60926 13.9086H0L3.15858 9.2011C1.34278 7.90194 0.320436 6.63335 0.320436 4.49356C0.320436 1.81882 2.18202 0 5.70681 0H9.21635V13.9086H9.23161Z" fill="#FC3F1D"/>
</g>
<defs>
<clipPath id="clip0_1_1838">
<rect width="56" height="16.2013" fill="white"/>
</clipPath>
</defs>
</svg>
